<?xml version="1.0" encoding="UTF-8" standalone="no"?>
<svg
   xmlns:dc="http://purl.org/dc/elements/1.1/"
   xmlns:cc="http://creativecommons.org/ns#"
   xmlns:rdf="http://www.w3.org/1999/02/22-rdf-syntax-ns#"
   xmlns:svg="http://www.w3.org/2000/svg"
   xmlns="http://www.w3.org/2000/svg"
   xmlns:sodipodi="http://sodipodi.sourceforge.net/DTD/sodipodi-0.dtd"
   xmlns:inkscape="http://www.inkscape.org/namespaces/inkscape"
   version="1.1"
   width="742"
   height="431.82812"
   id="svg2"
   inkscape:version="0.48.4 r9939"
   sodipodi:docname="diagram_domain_model.svg">
  <metadata
     id="metadata264">
    <rdf:RDF>
      <cc:Work
         rdf:about="">
        <dc:format>image/svg+xml</dc:format>
        <dc:type
           rdf:resource="http://purl.org/dc/dcmitype/StillImage" />
      </cc:Work>
    </rdf:RDF>
  </metadata>
  <sodipodi:namedview
     pagecolor="#ffffff"
     bordercolor="#666666"
     borderopacity="1"
     objecttolerance="10"
     gridtolerance="10"
     guidetolerance="10"
     inkscape:pageopacity="0"
     inkscape:pageshadow="2"
     inkscape:window-width="1366"
     inkscape:window-height="705"
     id="namedview262"
     showgrid="false"
     fit-margin-top="20"
     fit-margin-left="20"
     fit-margin-bottom="20"
     fit-margin-right="20"
     inkscape:zoom="1"
     inkscape:cx="306"
     inkscape:cy="239.82812"
     inkscape:window-x="0"
     inkscape:window-y="27"
     inkscape:window-maximized="1"
     inkscape:current-layer="svg2" />
  <defs
     id="defs4" />
  <g
     id="g12"
     transform="translate(281,148.5)">
    <g
       id="g14">
      <g
         id="g16"
         transform="scale(1.8,0.75)">
        <g
           id="g18">
          <path
             style="fill:#ffffff;stroke:none"
             inkscape:connector-curvature="0"
             id="path20"
             d="m 0,0 100,0 q 0,0 0,0 l 0,100 q 0,0 0,0 L 0,100 q 0,0 0,0 L 0,0 q 0,0 0,0 z" />
          <g
             id="g22"
             transform="scale(0.55555556,1.3333333)">
            <path
               style="fill:none;stroke:#333333;stroke-width:2;stroke-miterlimit:10"
               inkscape:connector-curvature="0"
               id="path24"
               stroke-miterlimit="10"
               d="m 0,0 180,0 q 0,0 0,0 l 0,75 q 0,0 0,0 L 0,75 q 0,0 0,0 L 0,0 q 0,0 0,0 z" />
          </g>
        </g>
        <g
           id="g26">
          <g
             id="g28"
             transform="scale(0.55555556,1.3333333)">
            <path
               style="opacity:0;fill:#000000;fill-opacity:0;stroke:none"
               inkscape:connector-curvature="0"
               id="path30"
               d="m 3.6,1.5 0,71.25 171,0 0,-70.5 -169.2,0 z" />
            <path
               style="opacity:0;fill:none;stroke:#3c7626;stroke-width:2;stroke-miterlimit:10"
               inkscape:connector-curvature="0"
               id="path32"
               stroke-miterlimit="10"
               d="m 3.6,1.5 m 0,0 0,4 m 0,0 m 0,2 0,4 m 0,0 m 0,2 0,4 m 0,0 m 0,2 0,4 m 0,0 m 0,2 0,4 m 0,0 m 0,2 0,4 m 0,0 m 0,2 0,4 m 0,0 m 0,2 0,4 m 0,0 m 0,2 0,4 m 0,0 m 0,2 0,4 m 0,0 m 0,2 0,4 m 0,0 m 0,2 0,4 m 0,0 m 0.75,1.25 4,0 m 0,0 m 2,0 4,0 m 0,0 m 2,0 4,0 m 0,0 m 2,0 4,0 m 0,0 m 2,0 4,0 m 0,0 m 2,0 4,0 m 0,0 m 2,0 4,0 m 0,0 m 2,0 4,0 m 0,0 m 2,0 4,0 m 0,0 m 2,0 4,0 m 0,0 m 2,0 4,0 m 0,0 m 2,0 4,0 m 0,0 m 2,0 4,0 m 0,0 m 2,0 4,0 m 0,0 m 2,0 4,0 m 0,0 m 2,0 4,0 m 0,0 m 2,0 4,0 m 0,0 m 2,0 4,0 m 0,0 m 2,0 4,0 m 0,0 m 2,0 4,0 m 0,0 m 2,0 4,0 m 0,0 m 2,0 4,0 m 0,0 m 2,0 4,0 m 0,0 m 2,0 4,0 m 0,0 m 2,0 4,0 m 0,0 m 2,0 4,0 m 0,0 m 2,0 4,0 m 0,0 m 2,0 4,0 m 0,0 m 2,0 2.25,0 0,-1.75 m 0,0 m 0,-2 0,-4 m 0,0 m 0,-2 0,-4 m 0,0 m 0,-2 0,-4 m 0,0 m 0,-2 0,-4 m 0,0 m 0,-2 0,-4 m 0,0 m 0,-2 0,-4 m 0,0 m 0,-2 0,-4 m 0,0 m 0,-2 0,-4 m 0,0 m 0,-2 0,-4 m 0,0 m 0,-2 0,-4 m 0,0 m 0,-2 0,-4 m 0,0 m 0,-2 0,-0.75 -3.25,0 m 0,0 m -2,0 -4,0 m 0,0 m -2,0 -4,0 m 0,0 m -2,0 -4,0 m 0,0 m -2,0 -4,0 m 0,0 m -2,0 -4,0 m 0,0 m -2,0 -4,0 m 0,0 m -2,0 -4,0 m 0,0 m -2,0 -4,0 m 0,0 m -2,0 -4,0 m 0,0 m -2,0 -4,0 m 0,0 m -2,0 -4,0 m 0,0 m -2,0 -4,0 m 0,0 m -2,0 -4,0 m 0,0 m -2,0 -4,0 m 0,0 m -2,0 -4,0 m 0,0 m -2,0 -4,0 m 0,0 m -2,0 -4,0 m 0,0 m -2,0 -4,0 m 0,0 m -2,0 -4,0 m 0,0 m -2,0 -4,0 m 0,0 m -2,0 -4,0 m 0,0 m -2,0 -4,0 m 0,0 m -2,0 -4,0 m 0,0 m -2,0 -4,0 m 0,0 m -2,0 -4,0 m 0,0 m -2,0 -4,0 m 0,0 m -2,0 -4,0 m 0,0 m -2,0 -1.95,0 z" />
          </g>
        </g>
      </g>
    </g>
  </g>
  <g
     id="g34"
     transform="translate(286.6,178)">
    <text
       style="font-size:18px;font-style:normal;font-weight:normal;text-decoration:none;fill:#000000;stroke:none;font-family:Arial"
       id="text36"
       y="15"
       x="30.4"
       text-decoration="none"
       font-weight="normal"
       font-style="normal"
       font-size="18px">课程管理系统</text>
  </g>
  <g
     id="g38"
     transform="translate(281,21)">
    <g
       id="g40">
      <g
         id="g42"
         transform="scale(1.8,0.75)">
        <g
           id="g44">
          <path
             style="fill:#ffffff;stroke:none"
             inkscape:connector-curvature="0"
             id="path46"
             d="m 0,0 100,0 q 0,0 0,0 l 0,100 q 0,0 0,0 L 0,100 q 0,0 0,0 L 0,0 q 0,0 0,0 z" />
          <g
             id="g48"
             transform="scale(0.55555556,1.3333333)">
            <path
               style="fill:none;stroke:#333333;stroke-width:2;stroke-miterlimit:10"
               inkscape:connector-curvature="0"
               id="path50"
               stroke-miterlimit="10"
               d="m 0,0 180,0 q 0,0 0,0 l 0,75 q 0,0 0,0 L 0,75 q 0,0 0,0 L 0,0 q 0,0 0,0 z" />
          </g>
        </g>
        <g
           id="g52">
          <g
             id="g54"
             transform="scale(0.55555556,1.3333333)">
            <path
               style="opacity:0;fill:#000000;fill-opacity:0;stroke:none"
               inkscape:connector-curvature="0"
               id="path56"
               d="m 3.6,1.5 0,71.25 171,0 0,-70.5 -169.2,0 z" />
            <path
               style="opacity:0;fill:none;stroke:#3c7626;stroke-width:2;stroke-miterlimit:10"
               inkscape:connector-curvature="0"
               id="path58"
               stroke-miterlimit="10"
               d="m 3.6,1.5 m 0,0 0,4 m 0,0 m 0,2 0,4 m 0,0 m 0,2 0,4 m 0,0 m 0,2 0,4 m 0,0 m 0,2 0,4 m 0,0 m 0,2 0,4 m 0,0 m 0,2 0,4 m 0,0 m 0,2 0,4 m 0,0 m 0,2 0,4 m 0,0 m 0,2 0,4 m 0,0 m 0,2 0,4 m 0,0 m 0,2 0,4 m 0,0 m 0.75,1.25 4,0 m 0,0 m 2,0 4,0 m 0,0 m 2,0 4,0 m 0,0 m 2,0 4,0 m 0,0 m 2,0 4,0 m 0,0 m 2,0 4,0 m 0,0 m 2,0 4,0 m 0,0 m 2,0 4,0 m 0,0 m 2,0 4,0 m 0,0 m 2,0 4,0 m 0,0 m 2,0 4,0 m 0,0 m 2,0 4,0 m 0,0 m 2,0 4,0 m 0,0 m 2,0 4,0 m 0,0 m 2,0 4,0 m 0,0 m 2,0 4,0 m 0,0 m 2,0 4,0 m 0,0 m 2,0 4,0 m 0,0 m 2,0 4,0 m 0,0 m 2,0 4,0 m 0,0 m 2,0 4,0 m 0,0 m 2,0 4,0 m 0,0 m 2,0 4,0 m 0,0 m 2,0 4,0 m 0,0 m 2,0 4,0 m 0,0 m 2,0 4,0 m 0,0 m 2,0 4,0 m 0,0 m 2,0 4,0 m 0,0 m 2,0 2.25,0 0,-1.75 m 0,0 m 0,-2 0,-4 m 0,0 m 0,-2 0,-4 m 0,0 m 0,-2 0,-4 m 0,0 m 0,-2 0,-4 m 0,0 m 0,-2 0,-4 m 0,0 m 0,-2 0,-4 m 0,0 m 0,-2 0,-4 m 0,0 m 0,-2 0,-4 m 0,0 m 0,-2 0,-4 m 0,0 m 0,-2 0,-4 m 0,0 m 0,-2 0,-4 m 0,0 m 0,-2 0,-0.75 -3.25,0 m 0,0 m -2,0 -4,0 m 0,0 m -2,0 -4,0 m 0,0 m -2,0 -4,0 m 0,0 m -2,0 -4,0 m 0,0 m -2,0 -4,0 m 0,0 m -2,0 -4,0 m 0,0 m -2,0 -4,0 m 0,0 m -2,0 -4,0 m 0,0 m -2,0 -4,0 m 0,0 m -2,0 -4,0 m 0,0 m -2,0 -4,0 m 0,0 m -2,0 -4,0 m 0,0 m -2,0 -4,0 m 0,0 m -2,0 -4,0 m 0,0 m -2,0 -4,0 m 0,0 m -2,0 -4,0 m 0,0 m -2,0 -4,0 m 0,0 m -2,0 -4,0 m 0,0 m -2,0 -4,0 m 0,0 m -2,0 -4,0 m 0,0 m -2,0 -4,0 m 0,0 m -2,0 -4,0 m 0,0 m -2,0 -4,0 m 0,0 m -2,0 -4,0 m 0,0 m -2,0 -4,0 m 0,0 m -2,0 -4,0 m 0,0 m -2,0 -4,0 m 0,0 m -2,0 -1.95,0 z" />
          </g>
        </g>
      </g>
    </g>
  </g>
  <g
     id="g60"
     transform="translate(286.6,48.5)">
    <text
       style="font-size:18px;font-style:normal;font-weight:normal;text-decoration:none;fill:#000000;stroke:none;font-family:Arial"
       id="text62"
       y="17"
       x="30.4"
       text-decoration="none"
       font-weight="normal"
       font-style="normal"
       font-size="18px">归档管理系统</text>
  </g>
  <g
     id="g64"
     transform="translate(21,148.5)">
    <g
       id="g66">
      <g
         id="g68"
         transform="scale(1.8,0.75)">
        <g
           id="g70">
          <path
             style="fill:#ffffff;stroke:none"
             inkscape:connector-curvature="0"
             id="path72"
             d="m 0,0 100,0 q 0,0 0,0 l 0,100 q 0,0 0,0 L 0,100 q 0,0 0,0 L 0,0 q 0,0 0,0 z" />
          <g
             id="g74"
             transform="scale(0.55555556,1.3333333)">
            <path
               style="fill:none;stroke:#333333;stroke-width:2;stroke-miterlimit:10"
               inkscape:connector-curvature="0"
               id="path76"
               stroke-miterlimit="10"
               d="m 0,0 180,0 q 0,0 0,0 l 0,75 q 0,0 0,0 L 0,75 q 0,0 0,0 L 0,0 q 0,0 0,0 z" />
          </g>
        </g>
        <g
           id="g78">
          <g
             id="g80"
             transform="scale(0.55555556,1.3333333)">
            <path
               style="opacity:0;fill:#000000;fill-opacity:0;stroke:none"
               inkscape:connector-curvature="0"
               id="path82"
               d="m 3.6,1.5 0,71.25 171,0 0,-70.5 -169.2,0 z" />
            <path
               style="opacity:0;fill:none;stroke:#3c7626;stroke-width:2;stroke-miterlimit:10"
               inkscape:connector-curvature="0"
               id="path84"
               stroke-miterlimit="10"
               d="m 3.6,1.5 m 0,0 0,4 m 0,0 m 0,2 0,4 m 0,0 m 0,2 0,4 m 0,0 m 0,2 0,4 m 0,0 m 0,2 0,4 m 0,0 m 0,2 0,4 m 0,0 m 0,2 0,4 m 0,0 m 0,2 0,4 m 0,0 m 0,2 0,4 m 0,0 m 0,2 0,4 m 0,0 m 0,2 0,4 m 0,0 m 0,2 0,4 m 0,0 m 0.75,1.25 4,0 m 0,0 m 2,0 4,0 m 0,0 m 2,0 4,0 m 0,0 m 2,0 4,0 m 0,0 m 2,0 4,0 m 0,0 m 2,0 4,0 m 0,0 m 2,0 4,0 m 0,0 m 2,0 4,0 m 0,0 m 2,0 4,0 m 0,0 m 2,0 4,0 m 0,0 m 2,0 4,0 m 0,0 m 2,0 4,0 m 0,0 m 2,0 4,0 m 0,0 m 2,0 4,0 m 0,0 m 2,0 4,0 m 0,0 m 2,0 4,0 m 0,0 m 2,0 4,0 m 0,0 m 2,0 4,0 m 0,0 m 2,0 4,0 m 0,0 m 2,0 4,0 m 0,0 m 2,0 4,0 m 0,0 m 2,0 4,0 m 0,0 m 2,0 4,0 m 0,0 m 2,0 4,0 m 0,0 m 2,0 4,0 m 0,0 m 2,0 4,0 m 0,0 m 2,0 4,0 m 0,0 m 2,0 4,0 m 0,0 m 2,0 2.25,0 0,-1.75 m 0,0 m 0,-2 0,-4 m 0,0 m 0,-2 0,-4 m 0,0 m 0,-2 0,-4 m 0,0 m 0,-2 0,-4 m 0,0 m 0,-2 0,-4 m 0,0 m 0,-2 0,-4 m 0,0 m 0,-2 0,-4 m 0,0 m 0,-2 0,-4 m 0,0 m 0,-2 0,-4 m 0,0 m 0,-2 0,-4 m 0,0 m 0,-2 0,-4 m 0,0 m 0,-2 0,-0.75 -3.25,0 m 0,0 m -2,0 -4,0 m 0,0 m -2,0 -4,0 m 0,0 m -2,0 -4,0 m 0,0 m -2,0 -4,0 m 0,0 m -2,0 -4,0 m 0,0 m -2,0 -4,0 m 0,0 m -2,0 -4,0 m 0,0 m -2,0 -4,0 m 0,0 m -2,0 -4,0 m 0,0 m -2,0 -4,0 m 0,0 m -2,0 -4,0 m 0,0 m -2,0 -4,0 m 0,0 m -2,0 -4,0 m 0,0 m -2,0 -4,0 m 0,0 m -2,0 -4,0 m 0,0 m -2,0 -4,0 m 0,0 m -2,0 -4,0 m 0,0 m -2,0 -4,0 m 0,0 m -2,0 -4,0 m 0,0 m -2,0 -4,0 m 0,0 m -2,0 -4,0 m 0,0 m -2,0 -4,0 m 0,0 m -2,0 -4,0 m 0,0 m -2,0 -4,0 m 0,0 m -2,0 -4,0 m 0,0 m -2,0 -4,0 m 0,0 m -2,0 -4,0 m 0,0 m -2,0 -1.95,0 z" />
          </g>
        </g>
      </g>
    </g>
  </g>
  <g
     id="g86"
     transform="translate(26.6,178)">
    <text
       style="font-size:18px;font-style:normal;font-weight:normal;text-decoration:none;fill:#000000;stroke:none;font-family:Arial"
       id="text88"
       y="15"
       x="30.4"
       text-decoration="none"
       font-weight="normal"
       font-style="normal"
       font-size="18px">邮件服务系统</text>
  </g>
  <g
     id="g90"
     transform="translate(541,148.5)">
    <g
       id="g92">
      <g
         id="g94"
         transform="scale(1.8,0.75)">
        <g
           id="g96">
          <path
             style="fill:#ffffff;stroke:none"
             inkscape:connector-curvature="0"
             id="path98"
             d="m 0,0 100,0 q 0,0 0,0 l 0,100 q 0,0 0,0 L 0,100 q 0,0 0,0 L 0,0 q 0,0 0,0 z" />
          <g
             id="g100"
             transform="scale(0.55555556,1.3333333)">
            <path
               style="fill:none;stroke:#333333;stroke-width:2;stroke-miterlimit:10"
               inkscape:connector-curvature="0"
               id="path102"
               stroke-miterlimit="10"
               d="m 0,0 180,0 q 0,0 0,0 l 0,75 q 0,0 0,0 L 0,75 q 0,0 0,0 L 0,0 q 0,0 0,0 z" />
          </g>
        </g>
        <g
           id="g104">
          <g
             id="g106"
             transform="scale(0.55555556,1.3333333)">
            <path
               style="opacity:0;fill:#000000;fill-opacity:0;stroke:none"
               inkscape:connector-curvature="0"
               id="path108"
               d="m 3.6,1.5 0,71.25 171,0 0,-70.5 -169.2,0 z" />
            <path
               style="opacity:0;fill:none;stroke:#3c7626;stroke-width:2;stroke-miterlimit:10"
               inkscape:connector-curvature="0"
               id="path110"
               stroke-miterlimit="10"
               d="m 3.6,1.5 m 0,0 0,4 m 0,0 m 0,2 0,4 m 0,0 m 0,2 0,4 m 0,0 m 0,2 0,4 m 0,0 m 0,2 0,4 m 0,0 m 0,2 0,4 m 0,0 m 0,2 0,4 m 0,0 m 0,2 0,4 m 0,0 m 0,2 0,4 m 0,0 m 0,2 0,4 m 0,0 m 0,2 0,4 m 0,0 m 0,2 0,4 m 0,0 m 0.75,1.25 4,0 m 0,0 m 2,0 4,0 m 0,0 m 2,0 4,0 m 0,0 m 2,0 4,0 m 0,0 m 2,0 4,0 m 0,0 m 2,0 4,0 m 0,0 m 2,0 4,0 m 0,0 m 2,0 4,0 m 0,0 m 2,0 4,0 m 0,0 m 2,0 4,0 m 0,0 m 2,0 4,0 m 0,0 m 2,0 4,0 m 0,0 m 2,0 4,0 m 0,0 m 2,0 4,0 m 0,0 m 2,0 4,0 m 0,0 m 2,0 4,0 m 0,0 m 2,0 4,0 m 0,0 m 2,0 4,0 m 0,0 m 2,0 4,0 m 0,0 m 2,0 4,0 m 0,0 m 2,0 4,0 m 0,0 m 2,0 4,0 m 0,0 m 2,0 4,0 m 0,0 m 2,0 4,0 m 0,0 m 2,0 4,0 m 0,0 m 2,0 4,0 m 0,0 m 2,0 4,0 m 0,0 m 2,0 4,0 m 0,0 m 2,0 2.25,0 0,-1.75 m 0,0 m 0,-2 0,-4 m 0,0 m 0,-2 0,-4 m 0,0 m 0,-2 0,-4 m 0,0 m 0,-2 0,-4 m 0,0 m 0,-2 0,-4 m 0,0 m 0,-2 0,-4 m 0,0 m 0,-2 0,-4 m 0,0 m 0,-2 0,-4 m 0,0 m 0,-2 0,-4 m 0,0 m 0,-2 0,-4 m 0,0 m 0,-2 0,-4 m 0,0 m 0,-2 0,-0.75 -3.25,0 m 0,0 m -2,0 -4,0 m 0,0 m -2,0 -4,0 m 0,0 m -2,0 -4,0 m 0,0 m -2,0 -4,0 m 0,0 m -2,0 -4,0 m 0,0 m -2,0 -4,0 m 0,0 m -2,0 -4,0 m 0,0 m -2,0 -4,0 m 0,0 m -2,0 -4,0 m 0,0 m -2,0 -4,0 m 0,0 m -2,0 -4,0 m 0,0 m -2,0 -4,0 m 0,0 m -2,0 -4,0 m 0,0 m -2,0 -4,0 m 0,0 m -2,0 -4,0 m 0,0 m -2,0 -4,0 m 0,0 m -2,0 -4,0 m 0,0 m -2,0 -4,0 m 0,0 m -2,0 -4,0 m 0,0 m -2,0 -4,0 m 0,0 m -2,0 -4,0 m 0,0 m -2,0 -4,0 m 0,0 m -2,0 -4,0 m 0,0 m -2,0 -4,0 m 0,0 m -2,0 -4,0 m 0,0 m -2,0 -4,0 m 0,0 m -2,0 -4,0 m 0,0 m -2,0 -1.95,0 z" />
          </g>
        </g>
      </g>
    </g>
  </g>
  <g
     id="g112"
     transform="translate(546.6,178)">
    <text
       style="font-size:18px;font-style:normal;font-weight:normal;text-decoration:none;fill:#000000;stroke:none;font-family:Arial"
       id="text114"
       y="15"
       x="30.4"
       text-decoration="none"
       font-weight="normal"
       font-style="normal"
       font-size="18px">开放身份系统</text>
  </g>
  <g
     id="g116"
     transform="translate(196.5,181.5)">
    <g
       id="g118">
      <g
         id="g120"
         transform="translate(-325.5,-230.5)">
        <g
           id="g122">
          <path
             style="fill:none;stroke:#000000;stroke-width:2;stroke-miterlimit:10"
             inkscape:connector-curvature="0"
             id="path124"
             stroke-miterlimit="10"
             d="m 330,235 80,0" />
        </g>
      </g>
    </g>
  </g>
  <g
     id="g126"
     transform="translate(456.5,181.5)">
    <g
       id="g128">
      <g
         id="g130"
         transform="translate(-585.5,-230.5)">
        <g
           id="g132">
          <path
             style="fill:none;stroke:#000000;stroke-width:2;stroke-miterlimit:10"
             inkscape:connector-curvature="0"
             id="path134"
             stroke-miterlimit="10"
             d="m 590,235 80,0" />
        </g>
      </g>
    </g>
  </g>
  <g
     id="g136"
     transform="translate(366.5,91.5)">
    <g
       id="g138">
      <g
         id="g140"
         transform="translate(-495.5,-140.5)">
        <g
           id="g142">
          <path
             style="fill:none;stroke:#000000;stroke-width:2;stroke-miterlimit:10"
             inkscape:connector-curvature="0"
             id="path144"
             stroke-miterlimit="10"
             d="m 500,145 0,52.5" />
        </g>
      </g>
    </g>
  </g>
  <g
     id="g146"
     transform="translate(201.5,291.5)">
    <g
       id="g148">
      <g
         id="g150"
         transform="scale(2.1,2)">
        <g
           id="g152">
          <path
             style="fill:#ffffff;stroke:none"
             inkscape:connector-curvature="0"
             id="path154"
             d="m 20,5 a 5,5 0 1 0 -2e-6,0.005 z" />
          <g
             id="g156"
             transform="scale(0.47619048,0.5)">
            <path
               style="fill:none;stroke:#000000;stroke-width:3;stroke-miterlimit:10"
               inkscape:connector-curvature="0"
               id="path158"
               stroke-miterlimit="10"
               d="M 31.5,0 C 37.298989,0 42,4.477153 42,10 42,15.522847 37.298989,20 31.5,20 25.701011,20 21,15.522847 21,10 21,4.477153 25.701011,0 31.5,0 z" />
          </g>
        </g>
        <g
           id="g160">
          <g
             id="g162"
             transform="scale(0.47619048,0.5)">
            <path
               style="fill:none;stroke:#000000;stroke-width:3;stroke-miterlimit:10"
               inkscape:connector-curvature="0"
               id="path164"
               stroke-miterlimit="10"
               d="m 31.5,20 0,40" />
          </g>
        </g>
        <g
           id="g166">
          <g
             id="g168"
             transform="scale(0.47619048,0.5)">
            <path
               style="fill:none;stroke:#000000;stroke-width:3;stroke-miterlimit:10"
               inkscape:connector-curvature="0"
               id="path170"
               stroke-miterlimit="10"
               d="M 31.5,60 21,100" />
          </g>
        </g>
        <g
           id="g172">
          <g
             id="g174"
             transform="scale(0.47619048,0.5)">
            <path
               style="fill:none;stroke:#000000;stroke-width:3;stroke-miterlimit:10"
               inkscape:connector-curvature="0"
               id="path176"
               stroke-miterlimit="10"
               d="M 31.5,60 42,100" />
          </g>
        </g>
        <g
           id="g178">
          <g
             id="g180"
             transform="scale(0.47619048,0.5)">
            <path
               style="fill:none;stroke:#000000;stroke-width:3;stroke-miterlimit:10"
               inkscape:connector-curvature="0"
               id="path182"
               stroke-miterlimit="10"
               d="M 31.5,60 42,100" />
          </g>
        </g>
        <g
           id="g184">
          <g
             id="g186"
             transform="scale(0.47619048,0.5)">
            <path
               style="fill:none;stroke:#000000;stroke-width:3;stroke-miterlimit:10"
               inkscape:connector-curvature="0"
               id="path188"
               stroke-miterlimit="10"
               d="m 0,30 63,0" />
          </g>
        </g>
      </g>
    </g>
  </g>
  <g
     id="g190"
     transform="translate(213.5,395)">
    <text
       style="font-size:18px;font-style:normal;font-weight:normal;text-decoration:none;fill:#000000;stroke:none;font-family:Arial"
       id="text192"
       y="15"
       x="0"
       text-decoration="none"
       font-weight="normal"
       font-style="normal"
       font-size="18px">导师</text>
  </g>
  <g
     id="g194"
     transform="translate(228,219)">
    <g
       id="g196">
      <g
         id="g198"
         transform="translate(-357,-268)">
        <g
           id="g200">
          <path
             style="fill:none;stroke:#000000;stroke-width:2;stroke-miterlimit:10"
             inkscape:connector-curvature="0"
             id="path202"
             stroke-miterlimit="10"
             d="M 462.72078,272.5 361.5,340" />
        </g>
      </g>
    </g>
  </g>
  <g
     id="g204"
     transform="translate(478.5,291.5)">
    <g
       id="g206">
      <g
         id="g208"
         transform="scale(2.1,2)">
        <g
           id="g210">
          <path
             style="fill:#ffffff;stroke:none"
             inkscape:connector-curvature="0"
             id="path212"
             d="m 20,5 a 5,5 0 1 0 -2e-6,0.005 z" />
          <g
             id="g214"
             transform="scale(0.47619048,0.5)">
            <path
               style="fill:none;stroke:#000000;stroke-width:3;stroke-miterlimit:10"
               inkscape:connector-curvature="0"
               id="path216"
               stroke-miterlimit="10"
               d="M 31.5,0 C 37.298989,0 42,4.477153 42,10 42,15.522847 37.298989,20 31.5,20 25.701011,20 21,15.522847 21,10 21,4.477153 25.701011,0 31.5,0 z" />
          </g>
        </g>
        <g
           id="g218">
          <g
             id="g220"
             transform="scale(0.47619048,0.5)">
            <path
               style="fill:none;stroke:#000000;stroke-width:3;stroke-miterlimit:10"
               inkscape:connector-curvature="0"
               id="path222"
               stroke-miterlimit="10"
               d="m 31.5,20 0,40" />
          </g>
        </g>
        <g
           id="g224">
          <g
             id="g226"
             transform="scale(0.47619048,0.5)">
            <path
               style="fill:none;stroke:#000000;stroke-width:3;stroke-miterlimit:10"
               inkscape:connector-curvature="0"
               id="path228"
               stroke-miterlimit="10"
               d="M 31.5,60 21,100" />
          </g>
        </g>
        <g
           id="g230">
          <g
             id="g232"
             transform="scale(0.47619048,0.5)">
            <path
               style="fill:none;stroke:#000000;stroke-width:3;stroke-miterlimit:10"
               inkscape:connector-curvature="0"
               id="path234"
               stroke-miterlimit="10"
               d="M 31.5,60 42,100" />
          </g>
        </g>
        <g
           id="g236">
          <g
             id="g238"
             transform="scale(0.47619048,0.5)">
            <path
               style="fill:none;stroke:#000000;stroke-width:3;stroke-miterlimit:10"
               inkscape:connector-curvature="0"
               id="path240"
               stroke-miterlimit="10"
               d="M 31.5,60 42,100" />
          </g>
        </g>
        <g
           id="g242">
          <g
             id="g244"
             transform="scale(0.47619048,0.5)">
            <path
               style="fill:none;stroke:#000000;stroke-width:3;stroke-miterlimit:10"
               inkscape:connector-curvature="0"
               id="path246"
               stroke-miterlimit="10"
               d="m 0,30 63,0" />
          </g>
        </g>
      </g>
    </g>
  </g>
  <g
     id="g248"
     transform="translate(490.5,395)">
    <text
       style="font-size:18px;font-style:normal;font-weight:normal;text-decoration:none;fill:#000000;stroke:none;font-family:Arial"
       id="text250"
       y="15"
       x="0"
       text-decoration="none"
       font-weight="normal"
       font-style="normal"
       font-size="18px">学员</text>
  </g>
  <g
     id="g252"
     transform="translate(403.77922,219)">
    <g
       id="g254">
      <g
         id="g256"
         transform="translate(-532.77922,-268)">
        <g
           id="g258">
          <path
             style="fill:none;stroke:#000000;stroke-width:2;stroke-miterlimit:10"
             inkscape:connector-curvature="0"
             id="path260"
             stroke-miterlimit="10"
             d="M 537.27922,272.5 638.5,340" />
        </g>
      </g>
    </g>
  </g>
</svg>
