<?xml version="1.0" encoding="UTF-8" standalone="no"?>
<svg
   xmlns:dc="http://purl.org/dc/elements/1.1/"
   xmlns:cc="http://creativecommons.org/ns#"
   xmlns:rdf="http://www.w3.org/1999/02/22-rdf-syntax-ns#"
   xmlns:svg="http://www.w3.org/2000/svg"
   xmlns="http://www.w3.org/2000/svg"
   xmlns:sodipodi="http://sodipodi.sourceforge.net/DTD/sodipodi-0.dtd"
   xmlns:inkscape="http://www.inkscape.org/namespaces/inkscape"
   version="1.1"
   width="652"
   height="252"
   id="svg2"
   inkscape:version="0.48.4 r9939"
   sodipodi:docname="diagram-er.svg">
  <metadata
     id="metadata272">
    <rdf:RDF>
      <cc:Work
         rdf:about="">
        <dc:format>image/svg+xml</dc:format>
        <dc:type
           rdf:resource="http://purl.org/dc/dcmitype/StillImage" />
      </cc:Work>
    </rdf:RDF>
  </metadata>
  <sodipodi:namedview
     pagecolor="#ffffff"
     bordercolor="#666666"
     borderopacity="1"
     objecttolerance="10"
     gridtolerance="10"
     guidetolerance="10"
     inkscape:pageopacity="0"
     inkscape:pageshadow="2"
     inkscape:window-width="1366"
     inkscape:window-height="705"
     id="namedview270"
     showgrid="false"
     fit-margin-top="20"
     fit-margin-left="20"
     fit-margin-right="20"
     fit-margin-bottom="20"
     inkscape:zoom="1.2181093"
     inkscape:cx="397.96223"
     inkscape:cy="160.0893"
     inkscape:window-x="0"
     inkscape:window-y="27"
     inkscape:window-maximized="1"
     inkscape:current-layer="svg2" />
  <defs
     id="defs4" />
  <g
     id="g12"
     transform="translate(441,21)"
     style="stroke-width:2;stroke-miterlimit:4;stroke-dasharray:none">
    <g
       id="g14"
       style="stroke-width:2;stroke-miterlimit:4;stroke-dasharray:none">
      <g
         id="g16"
         transform="scale(1.2,0.5)"
         style="stroke-width:2.58198881;stroke-miterlimit:4;stroke-dasharray:none">
        <g
           id="g18"
           style="stroke-width:2.58198881;stroke-miterlimit:4;stroke-dasharray:none">
          <path
             style="fill:#ffffff;stroke:none"
             inkscape:connector-curvature="0"
             id="path20"
             d="m 0,0 100,0 q 0,0 0,0 l 0,100 q 0,0 0,0 L 0,100 q 0,0 0,0 L 0,0 q 0,0 0,0 z" />
          <g
             id="g22"
             transform="scale(0.83333333,2)"
             style="stroke-width:2;stroke-miterlimit:4;stroke-dasharray:none">
            <path
               style="fill:none;stroke:#000000;stroke-width:2;stroke-miterlimit:4;stroke-dasharray:none"
               inkscape:connector-curvature="0"
               id="path24"
               stroke-miterlimit="10"
               d="m 0,0 120,0 q 0,0 0,0 l 0,50 q 0,0 0,0 L 0,50 q 0,0 0,0 L 0,0 q 0,0 0,0 z" />
          </g>
        </g>
        <g
           id="g26"
           style="stroke-width:2.58198881;stroke-miterlimit:4;stroke-dasharray:none">
          <g
             id="g28"
             transform="scale(0.83333333,2)"
             style="stroke-width:2;stroke-miterlimit:4;stroke-dasharray:none">
            <path
               style="opacity:0;fill:#000000;fill-opacity:0;stroke:none"
               inkscape:connector-curvature="0"
               id="path30"
               d="m 2.4,1 0,47.5 114,0 0,-47 -112.8,0 z" />
            <path
               style="opacity:0;fill:none;stroke:#3c7626;stroke-width:2;stroke-miterlimit:4;stroke-dasharray:none"
               inkscape:connector-curvature="0"
               id="path32"
               stroke-miterlimit="10"
               d="m 2.4,1 m 0,0 0,4 m 0,0 m 0,2 0,4 m 0,0 m 0,2 0,4 m 0,0 m 0,2 0,4 m 0,0 m 0,2 0,4 m 0,0 m 0,2 0,4 m 0,0 m 0,2 0,4 m 0,0 m 0,2 0,4 m 0,0 m 0.5,1.5 4,0 m 0,0 m 2,0 4,0 m 0,0 m 2,0 4,0 m 0,0 m 2,0 4,0 m 0,0 m 2,0 4,0 m 0,0 m 2,0 4,0 m 0,0 m 2,0 4,0 m 0,0 m 2,0 4,0 m 0,0 m 2,0 4,0 m 0,0 m 2,0 4,0 m 0,0 m 2,0 4,0 m 0,0 m 2,0 4,0 m 0,0 m 2,0 4,0 m 0,0 m 2,0 4,0 m 0,0 m 2,0 4,0 m 0,0 m 2,0 4,0 m 0,0 m 2,0 4,0 m 0,0 m 2,0 4,0 m 0,0 m 2,0 4,0 m 0,0 m 1.5,-0.5 0,-4 m 0,0 m 0,-2 0,-4 m 0,0 m 0,-2 0,-4 m 0,0 m 0,-2 0,-4 m 0,0 m 0,-2 0,-4 m 0,0 m 0,-2 0,-4 m 0,0 m 0,-2 0,-4 m 0,0 m 0,-2 0,-4 m 0,0 m -1.5,-0.5 -4,0 m 0,0 m -2,0 -4,0 m 0,0 m -2,0 -4,0 m 0,0 m -2,0 -4,0 m 0,0 m -2,0 -4,0 m 0,0 m -2,0 -4,0 m 0,0 m -2,0 -4,0 m 0,0 m -2,0 -4,0 m 0,0 m -2,0 -4,0 m 0,0 m -2,0 -4,0 m 0,0 m -2,0 -4,0 m 0,0 m -2,0 -4,0 m 0,0 m -2,0 -4,0 m 0,0 m -2,0 -4,0 m 0,0 m -2,0 -4,0 m 0,0 m -2,0 -4,0 m 0,0 m -2,0 -4,0 m 0,0 m -2,0 -4,0 m 0,0 m -2,0 -3.3,0 z" />
          </g>
        </g>
      </g>
    </g>
  </g>
  <g
     id="g34"
     transform="translate(444.5,37.5)">
    <text
       style="font-size:18px;font-style:normal;font-weight:normal;text-decoration:none;fill:#000000;stroke:none;font-family:Arial"
       id="text36"
       y="15"
       x="38"
       text-decoration="none"
       font-weight="normal"
       font-style="normal"
       font-size="18px">表单</text>
  </g>
  <g
     id="g38"
     transform="translate(91,21)"
     style="stroke-width:2;stroke-miterlimit:4;stroke-dasharray:none">
    <g
       id="g40"
       style="stroke-width:2;stroke-miterlimit:4;stroke-dasharray:none">
      <g
         id="g42"
         transform="scale(1.2,0.5)"
         style="stroke-width:2.58198881;stroke-miterlimit:4;stroke-dasharray:none">
        <g
           id="g44"
           style="stroke-width:2.58198881;stroke-miterlimit:4;stroke-dasharray:none">
          <path
             style="fill:#ffffff;stroke:none"
             inkscape:connector-curvature="0"
             id="path46"
             d="m 0,0 100,0 q 0,0 0,0 l 0,100 q 0,0 0,0 L 0,100 q 0,0 0,0 L 0,0 q 0,0 0,0 z" />
          <g
             id="g48"
             transform="scale(0.83333333,2)"
             style="stroke-width:2;stroke-miterlimit:4;stroke-dasharray:none">
            <path
               style="fill:none;stroke:#000000;stroke-width:2;stroke-miterlimit:4;stroke-dasharray:none"
               inkscape:connector-curvature="0"
               id="path50"
               stroke-miterlimit="10"
               d="m 0,0 120,0 q 0,0 0,0 l 0,50 q 0,0 0,0 L 0,50 q 0,0 0,0 L 0,0 q 0,0 0,0 z" />
          </g>
        </g>
        <g
           id="g52"
           style="stroke-width:2.58198881;stroke-miterlimit:4;stroke-dasharray:none">
          <g
             id="g54"
             transform="scale(0.83333333,2)"
             style="stroke-width:2;stroke-miterlimit:4;stroke-dasharray:none">
            <path
               style="opacity:0;fill:#000000;fill-opacity:0;stroke:none"
               inkscape:connector-curvature="0"
               id="path56"
               d="m 2.4,1 0,47.5 114,0 0,-47 -112.8,0 z" />
            <path
               style="opacity:0;fill:none;stroke:#3c7626;stroke-width:2;stroke-miterlimit:4;stroke-dasharray:none"
               inkscape:connector-curvature="0"
               id="path58"
               stroke-miterlimit="10"
               d="m 2.4,1 m 0,0 0,4 m 0,0 m 0,2 0,4 m 0,0 m 0,2 0,4 m 0,0 m 0,2 0,4 m 0,0 m 0,2 0,4 m 0,0 m 0,2 0,4 m 0,0 m 0,2 0,4 m 0,0 m 0,2 0,4 m 0,0 m 0.5,1.5 4,0 m 0,0 m 2,0 4,0 m 0,0 m 2,0 4,0 m 0,0 m 2,0 4,0 m 0,0 m 2,0 4,0 m 0,0 m 2,0 4,0 m 0,0 m 2,0 4,0 m 0,0 m 2,0 4,0 m 0,0 m 2,0 4,0 m 0,0 m 2,0 4,0 m 0,0 m 2,0 4,0 m 0,0 m 2,0 4,0 m 0,0 m 2,0 4,0 m 0,0 m 2,0 4,0 m 0,0 m 2,0 4,0 m 0,0 m 2,0 4,0 m 0,0 m 2,0 4,0 m 0,0 m 2,0 4,0 m 0,0 m 2,0 4,0 m 0,0 m 1.5,-0.5 0,-4 m 0,0 m 0,-2 0,-4 m 0,0 m 0,-2 0,-4 m 0,0 m 0,-2 0,-4 m 0,0 m 0,-2 0,-4 m 0,0 m 0,-2 0,-4 m 0,0 m 0,-2 0,-4 m 0,0 m 0,-2 0,-4 m 0,0 m -1.5,-0.5 -4,0 m 0,0 m -2,0 -4,0 m 0,0 m -2,0 -4,0 m 0,0 m -2,0 -4,0 m 0,0 m -2,0 -4,0 m 0,0 m -2,0 -4,0 m 0,0 m -2,0 -4,0 m 0,0 m -2,0 -4,0 m 0,0 m -2,0 -4,0 m 0,0 m -2,0 -4,0 m 0,0 m -2,0 -4,0 m 0,0 m -2,0 -4,0 m 0,0 m -2,0 -4,0 m 0,0 m -2,0 -4,0 m 0,0 m -2,0 -4,0 m 0,0 m -2,0 -4,0 m 0,0 m -2,0 -4,0 m 0,0 m -2,0 -4,0 m 0,0 m -2,0 -3.3,0 z" />
          </g>
        </g>
      </g>
    </g>
  </g>
  <g
     id="g60"
     transform="translate(94.5,37.5)">
    <text
       style="font-size:18px;font-style:normal;font-weight:normal;text-decoration:none;fill:#000000;stroke:none;font-family:Arial"
       id="text62"
       y="15"
       x="38"
       text-decoration="none"
       font-weight="normal"
       font-style="normal"
       font-size="18px">课程</text>
  </g>
  <g
     id="g64"
     transform="translate(271.00001,21)"
     style="stroke-width:2;stroke-miterlimit:4;stroke-dasharray:none">
    <g
       id="g66"
       style="stroke-width:2;stroke-miterlimit:4;stroke-dasharray:none">
      <g
         id="g68"
         transform="scale(1.2,0.5)"
         style="stroke-width:2.58198881;stroke-miterlimit:4;stroke-dasharray:none">
        <g
           id="g70"
           style="stroke-width:2.58198881;stroke-miterlimit:4;stroke-dasharray:none">
          <g
             id="g72"
             transform="scale(0.83333333,2)"
             style="stroke-width:2;stroke-miterlimit:4;stroke-dasharray:none">
            <path
               style="fill:#ffffff;stroke:#000000;stroke-width:2;stroke-miterlimit:4;stroke-dasharray:none"
               inkscape:connector-curvature="0"
               id="path74"
               stroke-miterlimit="10"
               d="M 60,0 120,25 60,50 0,25 60,0 z" />
          </g>
        </g>
      </g>
    </g>
  </g>
  <g
     id="g76"
     transform="translate(274.50001,37.5)">
    <text
       style="font-size:18px;font-style:normal;font-weight:normal;text-decoration:none;fill:#000000;stroke:none;font-family:Arial"
       id="text78"
       y="15"
       x="38"
       text-decoration="none"
       font-weight="normal"
       font-style="normal"
       font-size="18px">引用</text>
  </g>
  <g
     id="g80"
     transform="translate(271.00001,181)"
     style="stroke-width:2;stroke-miterlimit:4;stroke-dasharray:none">
    <g
       id="g82"
       style="stroke-width:2;stroke-miterlimit:4;stroke-dasharray:none">
      <g
         id="g84"
         transform="scale(1.2,0.5)"
         style="stroke-width:2.58198881;stroke-miterlimit:4;stroke-dasharray:none">
        <g
           id="g86"
           style="stroke-width:2.58198881;stroke-miterlimit:4;stroke-dasharray:none">
          <path
             style="fill:#ffffff;stroke:none"
             inkscape:connector-curvature="0"
             id="path88"
             d="m 0,0 100,0 q 0,0 0,0 l 0,100 q 0,0 0,0 L 0,100 q 0,0 0,0 L 0,0 q 0,0 0,0 z" />
          <g
             id="g90"
             transform="scale(0.83333333,2)"
             style="stroke-width:2;stroke-miterlimit:4;stroke-dasharray:none">
            <path
               style="fill:none;stroke:#000000;stroke-width:2;stroke-miterlimit:4;stroke-dasharray:none"
               inkscape:connector-curvature="0"
               id="path92"
               stroke-miterlimit="10"
               d="m 0,0 120,0 q 0,0 0,0 l 0,50 q 0,0 0,0 L 0,50 q 0,0 0,0 L 0,0 q 0,0 0,0 z" />
          </g>
        </g>
        <g
           id="g94"
           style="stroke-width:2.58198881;stroke-miterlimit:4;stroke-dasharray:none">
          <g
             id="g96"
             transform="scale(0.83333333,2)"
             style="stroke-width:2;stroke-miterlimit:4;stroke-dasharray:none">
            <path
               style="opacity:0;fill:#000000;fill-opacity:0;stroke:none"
               inkscape:connector-curvature="0"
               id="path98"
               d="m 2.4,1 0,47.5 114,0 0,-47 -112.8,0 z" />
            <path
               style="opacity:0;fill:none;stroke:#3c7626;stroke-width:2;stroke-miterlimit:4;stroke-dasharray:none"
               inkscape:connector-curvature="0"
               id="path100"
               stroke-miterlimit="10"
               d="m 2.4,1 m 0,0 0,4 m 0,0 m 0,2 0,4 m 0,0 m 0,2 0,4 m 0,0 m 0,2 0,4 m 0,0 m 0,2 0,4 m 0,0 m 0,2 0,4 m 0,0 m 0,2 0,4 m 0,0 m 0,2 0,4 m 0,0 m 0.5,1.5 4,0 m 0,0 m 2,0 4,0 m 0,0 m 2,0 4,0 m 0,0 m 2,0 4,0 m 0,0 m 2,0 4,0 m 0,0 m 2,0 4,0 m 0,0 m 2,0 4,0 m 0,0 m 2,0 4,0 m 0,0 m 2,0 4,0 m 0,0 m 2,0 4,0 m 0,0 m 2,0 4,0 m 0,0 m 2,0 4,0 m 0,0 m 2,0 4,0 m 0,0 m 2,0 4,0 m 0,0 m 2,0 4,0 m 0,0 m 2,0 4,0 m 0,0 m 2,0 4,0 m 0,0 m 2,0 4,0 m 0,0 m 2,0 4,0 m 0,0 m 1.5,-0.5 0,-4 m 0,0 m 0,-2 0,-4 m 0,0 m 0,-2 0,-4 m 0,0 m 0,-2 0,-4 m 0,0 m 0,-2 0,-4 m 0,0 m 0,-2 0,-4 m 0,0 m 0,-2 0,-4 m 0,0 m 0,-2 0,-4 m 0,0 m -1.5,-0.5 -4,0 m 0,0 m -2,0 -4,0 m 0,0 m -2,0 -4,0 m 0,0 m -2,0 -4,0 m 0,0 m -2,0 -4,0 m 0,0 m -2,0 -4,0 m 0,0 m -2,0 -4,0 m 0,0 m -2,0 -4,0 m 0,0 m -2,0 -4,0 m 0,0 m -2,0 -4,0 m 0,0 m -2,0 -4,0 m 0,0 m -2,0 -4,0 m 0,0 m -2,0 -4,0 m 0,0 m -2,0 -4,0 m 0,0 m -2,0 -4,0 m 0,0 m -2,0 -4,0 m 0,0 m -2,0 -4,0 m 0,0 m -2,0 -4,0 m 0,0 m -2,0 -3.3,0 z" />
          </g>
        </g>
      </g>
    </g>
  </g>
  <g
     id="g102"
     transform="translate(274.50001,197.5)">
    <text
       style="font-size:18px;font-style:normal;font-weight:normal;text-decoration:none;fill:#000000;stroke:none;font-family:Arial"
       id="text104"
       y="15"
       x="38"
       text-decoration="none"
       font-weight="normal"
       font-style="normal"
       font-size="18px">用户</text>
  </g>
  <g
     id="g106"
     transform="translate(206.00001,41)">
    <g
       id="g108">
      <g
         id="g110"
         transform="translate(-305.5,-140.5)">
        <g
           id="g112">
          <path
             style="fill:none;stroke:#000000;stroke-width:2;stroke-miterlimit:10"
             inkscape:connector-curvature="0"
             id="path114"
             stroke-miterlimit="10"
             d="m 310,145 60,0" />
        </g>
      </g>
    </g>
  </g>
  <g
     id="g116"
     transform="translate(386.00001,41)">
    <g
       id="g118">
      <g
         id="g120"
         transform="translate(-485.5,-140.5)">
        <g
           id="g122">
          <path
             style="fill:none;stroke:#000000;stroke-width:2;stroke-miterlimit:10"
             inkscape:connector-curvature="0"
             id="path124"
             stroke-miterlimit="10"
             d="m 490,145 50,0" />
        </g>
      </g>
    </g>
  </g>
  <g
     id="g126"
     transform="translate(21,111)"
     style="stroke-width:2;stroke-miterlimit:4;stroke-dasharray:none">
    <g
       id="g128"
       style="stroke-width:2;stroke-miterlimit:4;stroke-dasharray:none">
      <g
         id="g130"
         transform="scale(1.2,0.5)"
         style="stroke-width:2.58198881;stroke-miterlimit:4;stroke-dasharray:none">
        <g
           id="g132"
           style="stroke-width:2.58198881;stroke-miterlimit:4;stroke-dasharray:none">
          <g
             id="g134"
             transform="scale(0.83333333,2)"
             style="stroke-width:2;stroke-miterlimit:4;stroke-dasharray:none">
            <path
               style="fill:#ffffff;stroke:#000000;stroke-width:2;stroke-miterlimit:4;stroke-dasharray:none"
               inkscape:connector-curvature="0"
               id="path136"
               stroke-miterlimit="10"
               d="M 60,0 120,25 60,50 0,25 60,0 z" />
          </g>
        </g>
      </g>
    </g>
  </g>
  <g
     id="g138"
     transform="translate(24.5,127.5)">
    <text
       style="font-size:18px;font-style:normal;font-weight:normal;text-decoration:none;fill:#000000;stroke:none;font-family:Arial"
       id="text140"
       y="15"
       x="38"
       text-decoration="none"
       font-weight="normal"
       font-style="normal"
       font-size="18px">选择</text>
  </g>
  <g
     id="g142"
     transform="translate(76,66)">
    <g
       id="g144">
      <g
         id="g146"
         transform="translate(-175.5,-165.5)">
        <g
           id="g148">
          <path
             style="fill:none;stroke:#000000;stroke-width:2;stroke-miterlimit:10"
             inkscape:connector-curvature="0"
             id="path150"
             stroke-miterlimit="10"
             d="m 250,170 0,10 q 0,10 -10,10 l -50,0 q -10,0 -10,10 l 0,10" />
        </g>
      </g>
    </g>
  </g>
  <g
     id="g152"
     transform="translate(76,156)">
    <g
       id="g154">
      <g
         id="g156"
         transform="translate(-175.5,-255.5)">
        <g
           id="g158">
          <path
             style="fill:none;stroke:#000000;stroke-width:2;stroke-miterlimit:10"
             inkscape:connector-curvature="0"
             id="path160"
             stroke-miterlimit="10"
             d="m 180,260 0,35 q 0,10 10,10 l 180,0" />
        </g>
      </g>
    </g>
  </g>
  <g
     id="g162"
     transform="translate(161.00001,111)"
     style="stroke-width:2;stroke-miterlimit:4;stroke-dasharray:none">
    <g
       id="g164"
       style="stroke-width:2;stroke-miterlimit:4;stroke-dasharray:none">
      <g
         id="g166"
         transform="scale(1.2,0.5)"
         style="stroke-width:2.58198881;stroke-miterlimit:4;stroke-dasharray:none">
        <g
           id="g168"
           style="stroke-width:2.58198881;stroke-miterlimit:4;stroke-dasharray:none">
          <g
             id="g170"
             transform="scale(0.83333333,2)"
             style="stroke-width:2;stroke-miterlimit:4;stroke-dasharray:none">
            <path
               style="fill:#ffffff;stroke:#000000;stroke-width:2;stroke-miterlimit:4;stroke-dasharray:none"
               inkscape:connector-curvature="0"
               id="path172"
               stroke-miterlimit="10"
               d="M 60,0 120,25 60,50 0,25 60,0 z" />
          </g>
        </g>
      </g>
    </g>
  </g>
  <g
     id="g174"
     transform="translate(164.50001,127.5)">
    <text
       style="font-size:18px;font-style:normal;font-weight:normal;text-decoration:none;fill:#000000;stroke:none;font-family:Arial"
       id="text176"
       y="15"
       x="38"
       text-decoration="none"
       font-weight="normal"
       font-style="normal"
       font-size="18px">创建</text>
  </g>
  <g
     id="g178"
     transform="translate(146.00001,66)">
    <g
       id="g180">
      <g
         id="g182"
         transform="translate(-245.5,-165.5)">
        <g
           id="g184">
          <path
             style="fill:none;stroke:#000000;stroke-width:2;stroke-miterlimit:10"
             inkscape:connector-curvature="0"
             id="path186"
             stroke-miterlimit="10"
             d="m 250,170 0,10 q 0,10 10,10 l 50,0 q 10,0 10,10 l 0,10" />
        </g>
      </g>
    </g>
  </g>
  <g
     id="g188"
     transform="translate(216.00001,156)">
    <g
       id="g190">
      <g
         id="g192"
         transform="translate(-315.5,-255.5)">
        <g
           id="g194">
          <path
             style="fill:none;stroke:#000000;stroke-width:2;stroke-miterlimit:10"
             inkscape:connector-curvature="0"
             id="path196"
             stroke-miterlimit="10"
             d="m 320,260 0,35 q 0,10 10,10 l 40,0" />
        </g>
      </g>
    </g>
  </g>
  <g
     id="g198"
     transform="translate(371.00001,111)"
     style="stroke-width:2;stroke-miterlimit:4;stroke-dasharray:none">
    <g
       id="g200"
       style="stroke-width:2;stroke-miterlimit:4;stroke-dasharray:none">
      <g
         id="g202"
         transform="scale(1.2,0.5)"
         style="stroke-width:2.58198881;stroke-miterlimit:4;stroke-dasharray:none">
        <g
           id="g204"
           style="stroke-width:2.58198881;stroke-miterlimit:4;stroke-dasharray:none">
          <g
             id="g206"
             transform="scale(0.83333333,2)"
             style="stroke-width:2;stroke-miterlimit:4;stroke-dasharray:none">
            <path
               style="fill:#ffffff;stroke:#000000;stroke-width:2;stroke-miterlimit:4;stroke-dasharray:none"
               inkscape:connector-curvature="0"
               id="path208"
               stroke-miterlimit="10"
               d="M 60,0 120,25 60,50 0,25 60,0 z" />
          </g>
        </g>
      </g>
    </g>
  </g>
  <g
     id="g210"
     transform="translate(374.50001,127.5)">
    <text
       style="font-size:18px;font-style:normal;font-weight:normal;text-decoration:none;fill:#000000;stroke:none;font-family:Arial"
       id="text212"
       y="15"
       x="38"
       text-decoration="none"
       font-weight="normal"
       font-style="normal"
       font-size="18px">创建</text>
  </g>
  <g
     id="g214"
     transform="translate(511,111)"
     style="stroke-width:2;stroke-miterlimit:4;stroke-dasharray:none">
    <g
       id="g216"
       style="stroke-width:2;stroke-miterlimit:4;stroke-dasharray:none">
      <g
         id="g218"
         transform="scale(1.2,0.5)"
         style="stroke-width:2.58198881;stroke-miterlimit:4;stroke-dasharray:none">
        <g
           id="g220"
           style="stroke-width:2.58198881;stroke-miterlimit:4;stroke-dasharray:none">
          <g
             id="g222"
             transform="scale(0.83333333,2)"
             style="stroke-width:2;stroke-miterlimit:4;stroke-dasharray:none">
            <path
               style="fill:#ffffff;stroke:#000000;stroke-width:2;stroke-miterlimit:4;stroke-dasharray:none"
               inkscape:connector-curvature="0"
               id="path224"
               stroke-miterlimit="10"
               d="M 60,0 120,25 60,50 0,25 60,0 z" />
          </g>
        </g>
      </g>
    </g>
  </g>
  <g
     id="g226"
     transform="translate(514.5,127.5)">
    <text
       style="font-size:18px;font-style:normal;font-weight:normal;text-decoration:none;fill:#000000;stroke:none;font-family:Arial"
       id="text228"
       y="15"
       x="38"
       text-decoration="none"
       font-weight="normal"
       font-style="normal"
       font-size="18px">填写</text>
  </g>
  <g
     id="g230"
     transform="translate(386.00001,156)">
    <g
       id="g232">
      <g
         id="g234"
         transform="translate(-485.5,-255.5)">
        <g
           id="g236">
          <path
             style="fill:none;stroke:#000000;stroke-width:2;stroke-miterlimit:10"
             inkscape:connector-curvature="0"
             id="path238"
             stroke-miterlimit="10"
             d="m 490,305 30,0 q 10,0 10,-10 l 0,-35" />
        </g>
      </g>
    </g>
  </g>
  <g
     id="g240"
     transform="translate(386.00001,156)">
    <g
       id="g242">
      <g
         id="g244"
         transform="translate(-485.5,-255.5)">
        <g
           id="g246">
          <path
             style="fill:none;stroke:#000000;stroke-width:2;stroke-miterlimit:10"
             inkscape:connector-curvature="0"
             id="path248"
             stroke-miterlimit="10"
             d="m 490,305 170,0 q 10,0 10,-10 l 0,-35" />
        </g>
      </g>
    </g>
  </g>
  <g
     id="g250"
     transform="translate(426,66)">
    <g
       id="g252">
      <g
         id="g254"
         transform="translate(-525.5,-165.5)">
        <g
           id="g256">
          <path
             style="fill:none;stroke:#000000;stroke-width:2;stroke-miterlimit:10"
             inkscape:connector-curvature="0"
             id="path258"
             stroke-miterlimit="10"
             d="m 530,210 0,-10 q 0,-10 10,-10 l 50,0 q 10,0 10,-10 l 0,-10" />
        </g>
      </g>
    </g>
  </g>
  <g
     id="g260"
     transform="translate(496,66)">
    <g
       id="g262">
      <g
         id="g264"
         transform="translate(-595.5,-165.5)">
        <g
           id="g266">
          <path
             style="fill:none;stroke:#000000;stroke-width:2;stroke-miterlimit:10"
             inkscape:connector-curvature="0"
             id="path268"
             stroke-miterlimit="10"
             d="m 670,210 0,-10 q 0,-10 -10,-10 l -50,0 q -10,0 -10,-10 l 0,-10" />
        </g>
      </g>
    </g>
  </g>
</svg>
