<?xml version="1.0" encoding="UTF-8" standalone="no"?>
<svg
   xmlns:dc="http://purl.org/dc/elements/1.1/"
   xmlns:cc="http://creativecommons.org/ns#"
   xmlns:rdf="http://www.w3.org/1999/02/22-rdf-syntax-ns#"
   xmlns:svg="http://www.w3.org/2000/svg"
   xmlns="http://www.w3.org/2000/svg"
   xmlns:sodipodi="http://sodipodi.sourceforge.net/DTD/sodipodi-0.dtd"
   xmlns:inkscape="http://www.inkscape.org/namespaces/inkscape"
   version="1.1"
   width="622"
   height="462"
   id="svg2"
   inkscape:version="0.48.4 r9939"
   sodipodi:docname="diagram_tech_stack.svg">
  <metadata
     id="metadata406">
    <rdf:RDF>
      <cc:Work
         rdf:about="">
        <dc:format>image/svg+xml</dc:format>
        <dc:type
           rdf:resource="http://purl.org/dc/dcmitype/StillImage" />
      </cc:Work>
    </rdf:RDF>
  </metadata>
  <sodipodi:namedview
     pagecolor="#ffffff"
     bordercolor="#666666"
     borderopacity="1"
     objecttolerance="10"
     gridtolerance="10"
     guidetolerance="10"
     inkscape:pageopacity="0"
     inkscape:pageshadow="2"
     inkscape:window-width="1366"
     inkscape:window-height="705"
     id="namedview404"
     showgrid="false"
     fit-margin-top="20"
     fit-margin-left="20"
     fit-margin-right="20"
     fit-margin-bottom="20"
     inkscape:zoom="1.6792674"
     inkscape:cx="118.54238"
     inkscape:cy="311.70839"
     inkscape:window-x="0"
     inkscape:window-y="27"
     inkscape:window-maximized="1"
     inkscape:current-layer="svg2" />
  <defs
     id="defs4" />
  <g
     id="g12"
     transform="translate(21,381)">
    <g
       id="g14">
      <g
         id="g16"
         transform="scale(1.9333333,0.6)">
        <g
           id="g18">
          <path
             style="fill:#ffffff;stroke:none"
             inkscape:connector-curvature="0"
             id="path20"
             d="m 0,0 100,0 q 0,0 0,0 l 0,100 q 0,0 0,0 L 0,100 q 0,0 0,0 L 0,0 q 0,0 0,0 z" />
          <g
             id="g22"
             transform="scale(0.51724138,1.6666667)">
            <path
               style="fill:none;stroke:#333333;stroke-width:2;stroke-miterlimit:10"
               inkscape:connector-curvature="0"
               id="path24"
               stroke-miterlimit="10"
               d="m 0,0 193.33333,0 q 0,0 0,0 l 0,60 q 0,0 0,0 L 0,60 q 0,0 0,0 L 0,0 q 0,0 0,0 z" />
          </g>
        </g>
        <g
           id="g26">
          <g
             id="g28"
             transform="scale(0.51724138,1.6666667)">
            <path
               style="opacity:0;fill:#000000;fill-opacity:0;stroke:none"
               inkscape:connector-curvature="0"
               id="path30"
               d="m 3.8666667,1.2 0,57 183.6666633,0 0,-56.4 L 5.8,1.8 z" />
            <path
               style="opacity:0;fill:none;stroke:#3c7626;stroke-width:2;stroke-miterlimit:10"
               inkscape:connector-curvature="0"
               id="path32"
               stroke-miterlimit="10"
               d="m 3.8666667,1.2 m 0,0 0,4 m 0,0 m 0,2 0,4 m 0,0 m 0,2 0,4 m 0,0 m 0,2 0,4 m 0,0 m 0,2 0,4 m 0,0 m 0,2 0,4 m 0,0 m 0,2 0,4 m 0,0 m 0,2 0,4 m 0,0 m 0,2 0,4 m 0,0 m 0,2 0,3 1,0 m 0,0 m 2,0 4.0000003,0 m 0,0 m 2,0 4,0 m 0,0 m 2,0 4,0 m 0,0 m 2,0 4,0 m 0,0 m 2,0 4,0 m 0,0 m 2,0 4,0 m 0,0 m 2,0 4,0 m 0,0 m 2,0 4,0 m 0,0 m 2,0 4,0 m 0,0 m 2,0 4,0 m 0,0 m 2,0 4,0 m 0,0 m 2,0 4,0 m 0,0 m 2,0 4,0 m 0,0 m 2,0 4,0 m 0,0 m 2,0 4,0 m 0,0 m 2,0 4.000003,0 m 0,0 m 2,0 4,0 m 0,0 m 2,0 4,0 m 0,0 m 2,0 4,0 m 0,0 m 2,0 4,0 m 0,0 m 2,0 4,0 m 0,0 m 2,0 4,0 m 0,0 m 2,0 4,0 m 0,0 m 2,0 4,0 m 0,0 m 2,0 4,0 m 0,0 m 2,0 4,0 m 0,0 m 2,0 4,0 m 0,0 m 2,0 4,0 m 0,0 m 2,0 4,0 m 0,0 m 2,0 4,0 m 0,0 m 2,0 0.66666,0 0,-3.333333 m 0,0 m 0,-2 0,-4 m 0,0 m 0,-2 0,-4 m 0,0 m 0,-2 0,-4 m 0,0 m 0,-2 0,-4 m 0,0 m 0,-2 0,-4 m 0,0 m 0,-2 0,-4 m 0,0 m 0,-2 0,-4 m 0,0 m 0,-2 0,-4.0000003 m 0,0 m 0,-2 0,-3.0666667 -0.93333,0 m 0,0 m -2,0 -4,0 m 0,0 m -2,0 -4,0 m 0,0 m -2,0 -4,0 m 0,0 m -2,0 -4,0 m 0,0 m -2,0 -4,0 m 0,0 m -2,0 -4,0 m 0,0 m -2,0 -4,0 m 0,0 m -2,0 -4,0 m 0,0 m -2,0 -4,0 m 0,0 m -2,0 -4,0 m 0,0 m -2,0 -4,0 m 0,0 m -2,0 -4,0 m 0,0 m -2,0 -4,0 m 0,0 m -2,0 -4,0 m 0,0 m -2,0 -4,0 m 0,0 m -2,0 -4,0 m 0,0 m -2,0 -4,0 m 0,0 m -2,0 -4,0 m 0,0 m -2,0 -4,0 m 0,0 m -2,0 -4,0 m 0,0 m -2,0 -4,0 m 0,0 m -2,0 -4,0 m 0,0 m -2,0 -4,0 m 0,0 m -2,0 -4,0 m 0,0 m -2,0 -4,0 m 0,0 m -2,0 -4,0 m 0,0 m -2,0 -4,0 m 0,0 m -2,0 -4,0 m 0,0 m -2,0 -4,0 m 0,0 m -2,0 -4,0 m 0,0 z" />
          </g>
        </g>
      </g>
    </g>
  </g>
  <g
     id="g34"
     transform="translate(26.86667,401)">
    <text
       style="font-size:18px;font-style:normal;font-weight:normal;text-decoration:none;fill:#000000;stroke:none;font-family:Arial"
       id="text36"
       y="15"
       x="41.799999"
       text-decoration="none"
       font-weight="normal"
       font-style="normal"
       font-size="18px">PostgreSQL</text>
  </g>
  <g
     id="g38"
     transform="translate(214.33333,381)">
    <g
       id="g40">
      <g
         id="g42"
         transform="scale(1.9333333,0.6)">
        <g
           id="g44">
          <path
             style="fill:#ffffff;stroke:none"
             inkscape:connector-curvature="0"
             id="path46"
             d="m 0,0 100,0 q 0,0 0,0 l 0,100 q 0,0 0,0 L 0,100 q 0,0 0,0 L 0,0 q 0,0 0,0 z" />
          <g
             id="g48"
             transform="scale(0.51724138,1.6666667)">
            <path
               style="fill:none;stroke:#333333;stroke-width:2;stroke-miterlimit:10"
               inkscape:connector-curvature="0"
               id="path50"
               stroke-miterlimit="10"
               d="m 0,0 193.33333,0 q 0,0 0,0 l 0,60 q 0,0 0,0 L 0,60 q 0,0 0,0 L 0,0 q 0,0 0,0 z" />
          </g>
        </g>
        <g
           id="g52">
          <g
             id="g54"
             transform="scale(0.51724138,1.6666667)">
            <path
               style="opacity:0;fill:#000000;fill-opacity:0;stroke:none"
               inkscape:connector-curvature="0"
               id="path56"
               d="m 3.8666667,1.2 0,57 183.6666633,0 0,-56.4 L 5.8,1.8 z" />
            <path
               style="opacity:0;fill:none;stroke:#3c7626;stroke-width:2;stroke-miterlimit:10"
               inkscape:connector-curvature="0"
               id="path58"
               stroke-miterlimit="10"
               d="m 3.8666667,1.2 m 0,0 0,4 m 0,0 m 0,2 0,4 m 0,0 m 0,2 0,4 m 0,0 m 0,2 0,4 m 0,0 m 0,2 0,4 m 0,0 m 0,2 0,4 m 0,0 m 0,2 0,4 m 0,0 m 0,2 0,4 m 0,0 m 0,2 0,4 m 0,0 m 0,2 0,3 1,0 m 0,0 m 2,0 4.0000003,0 m 0,0 m 2,0 4,0 m 0,0 m 2,0 4,0 m 0,0 m 2,0 4,0 m 0,0 m 2,0 4,0 m 0,0 m 2,0 4,0 m 0,0 m 2,0 4,0 m 0,0 m 2,0 4,0 m 0,0 m 2,0 4,0 m 0,0 m 2,0 4,0 m 0,0 m 2,0 4,0 m 0,0 m 2,0 4,0 m 0,0 m 2,0 4,0 m 0,0 m 2,0 4,0 m 0,0 m 2,0 4,0 m 0,0 m 2,0 4.000003,0 m 0,0 m 2,0 4,0 m 0,0 m 2,0 4,0 m 0,0 m 2,0 4,0 m 0,0 m 2,0 4,0 m 0,0 m 2,0 4,0 m 0,0 m 2,0 4,0 m 0,0 m 2,0 4,0 m 0,0 m 2,0 4,0 m 0,0 m 2,0 4,0 m 0,0 m 2,0 4,0 m 0,0 m 2,0 4,0 m 0,0 m 2,0 4,0 m 0,0 m 2,0 4,0 m 0,0 m 2,0 4,0 m 0,0 m 2,0 0.66666,0 0,-3.333333 m 0,0 m 0,-2 0,-4 m 0,0 m 0,-2 0,-4 m 0,0 m 0,-2 0,-4 m 0,0 m 0,-2 0,-4 m 0,0 m 0,-2 0,-4 m 0,0 m 0,-2 0,-4 m 0,0 m 0,-2 0,-4 m 0,0 m 0,-2 0,-4.0000003 m 0,0 m 0,-2 0,-3.0666667 -0.93333,0 m 0,0 m -2,0 -4,0 m 0,0 m -2,0 -4,0 m 0,0 m -2,0 -4,0 m 0,0 m -2,0 -4,0 m 0,0 m -2,0 -4,0 m 0,0 m -2,0 -4,0 m 0,0 m -2,0 -4,0 m 0,0 m -2,0 -4,0 m 0,0 m -2,0 -4,0 m 0,0 m -2,0 -4,0 m 0,0 m -2,0 -4,0 m 0,0 m -2,0 -4,0 m 0,0 m -2,0 -4,0 m 0,0 m -2,0 -4,0 m 0,0 m -2,0 -4,0 m 0,0 m -2,0 -4,0 m 0,0 m -2,0 -4,0 m 0,0 m -2,0 -4,0 m 0,0 m -2,0 -4,0 m 0,0 m -2,0 -4,0 m 0,0 m -2,0 -4,0 m 0,0 m -2,0 -4,0 m 0,0 m -2,0 -4,0 m 0,0 m -2,0 -4,0 m 0,0 m -2,0 -4,0 m 0,0 m -2,0 -4,0 m 0,0 m -2,0 -4,0 m 0,0 m -2,0 -4,0 m 0,0 m -2,0 -4,0 m 0,0 m -2,0 -4,0 m 0,0 z" />
          </g>
        </g>
      </g>
    </g>
  </g>
  <g
     id="g60"
     transform="translate(220.2,401)">
    <text
       style="font-size:18px;font-style:normal;font-weight:normal;text-decoration:none;fill:#000000;stroke:none;font-family:Arial"
       id="text62"
       y="15"
       x="67.800003"
       text-decoration="none"
       font-weight="normal"
       font-style="normal"
       font-size="18px">Redis</text>
  </g>
  <g
     id="g64"
     transform="translate(21,321)">
    <g
       id="g66">
      <g
         id="g68"
         transform="scale(5.8,0.6)">
        <g
           id="g70">
          <path
             style="fill:#ffffff;stroke:none"
             inkscape:connector-curvature="0"
             id="path72"
             d="m 0,0 100,0 q 0,0 0,0 l 0,100 q 0,0 0,0 L 0,100 q 0,0 0,0 L 0,0 q 0,0 0,0 z" />
          <g
             id="g74"
             transform="scale(0.17241379,1.6666667)">
            <path
               style="fill:none;stroke:#333333;stroke-width:2;stroke-miterlimit:10"
               inkscape:connector-curvature="0"
               id="path76"
               stroke-miterlimit="10"
               d="m 0,0 580,0 q 0,0 0,0 l 0,60 q 0,0 0,0 L 0,60 q 0,0 0,0 L 0,0 q 0,0 0,0 z" />
          </g>
        </g>
        <g
           id="g78">
          <g
             id="g80"
             transform="scale(0.17241379,1.6666667)">
            <path
               style="opacity:0;fill:#000000;fill-opacity:0;stroke:none"
               inkscape:connector-curvature="0"
               id="path82"
               d="m 11.6,1.2 0,57 551,0 0,-56.4 -545.2,0 z" />
            <path
               style="opacity:0;fill:none;stroke:#3c7626;stroke-width:2;stroke-miterlimit:10"
               inkscape:connector-curvature="0"
               id="path84"
               stroke-miterlimit="10"
               d="m 11.6,1.2 m 0,0 0,4 m 0,0 m 0,2 0,4 m 0,0 m 0,2 0,4 m 0,0 m 0,2 0,4 m 0,0 m 0,2 0,4 m 0,0 m 0,2 0,4 m 0,0 m 0,2 0,4 m 0,0 m 0,2 0,4 m 0,0 m 0,2 0,4 m 0,0 m 0,2 0,3 1,0 m 0,0 m 2,0 4,0 m 0,0 m 2,0 4,0 m 0,0 m 2,0 4,0 m 0,0 m 2,0 4,0 m 0,0 m 2,0 4,0 m 0,0 m 2,0 4,0 m 0,0 m 2,0 4,0 m 0,0 m 2,0 4,0 m 0,0 m 2,0 4,0 m 0,0 m 2,0 4,0 m 0,0 m 2,0 4,0 m 0,0 m 2,0 4,0 m 0,0 m 2,0 4,0 m 0,0 m 2,0 4,0 m 0,0 m 2,0 4,0 m 0,0 m 2,0 4,0 m 0,0 m 2,0 4,0 m 0,0 m 2,0 4,0 m 0,0 m 2,0 4,0 m 0,0 m 2,0 4,0 m 0,0 m 2,0 4,0 m 0,0 m 2,0 4,0 m 0,0 m 2,0 4,0 m 0,0 m 2,0 4,0 m 0,0 m 2,0 4,0 m 0,0 m 2,0 4,0 m 0,0 m 2,0 4,0 m 0,0 m 2,0 4,0 m 0,0 m 2,0 4,0 m 0,0 m 2,0 4,0 m 0,0 m 2,0 4,0 m 0,0 m 2,0 4,0 m 0,0 m 2,0 4,0 m 0,0 m 2,0 4,0 m 0,0 m 2,0 4,0 m 0,0 m 2,0 4,0 m 0,0 m 2,0 4,0 m 0,0 m 2,0 4,0 m 0,0 m 2,0 4,0 m 0,0 m 2,0 4,0 m 0,0 m 2,0 4,0 m 0,0 m 2,0 4,0 m 0,0 m 2,0 4,0 m 0,0 m 2,0 4,0 m 0,0 m 2,0 4,0 m 0,0 m 2,0 4,0 m 0,0 m 2,0 4,0 m 0,0 m 2,0 4,0 m 0,0 m 2,0 4,0 m 0,0 m 2,0 4,0 m 0,0 m 2,0 4,0 m 0,0 m 2,0 4,0 m 0,0 m 2,0 4,0 m 0,0 m 2,0 4,0 m 0,0 m 2,0 4,0 m 0,0 m 2,0 4,0 m 0,0 m 2,0 4,0 m 0,0 m 2,0 4,0 m 0,0 m 2,0 4,0 m 0,0 m 2,0 4,0 m 0,0 m 2,0 4,0 m 0,0 m 2,0 4,0 m 0,0 m 2,0 4,0 m 0,0 m 2,0 4,0 m 0,0 m 2,0 4,0 m 0,0 m 2,0 4,0 m 0,0 m 2,0 4,0 m 0,0 m 2,0 4,0 m 0,0 m 2,0 4,0 m 0,0 m 2,0 4,0 m 0,0 m 2,0 4,0 m 0,0 m 2,0 4,0 m 0,0 m 2,0 4,0 m 0,0 m 2,0 4,0 m 0,0 m 2,0 4,0 m 0,0 m 2,0 4,0 m 0,0 m 2,0 4,0 m 0,0 m 2,0 4,0 m 0,0 m 2,0 4,0 m 0,0 m 2,0 4,0 m 0,0 m 2,0 4,0 m 0,0 m 2,0 4,0 m 0,0 m 2,0 4,0 m 0,0 m 2,0 4,0 m 0,0 m 2,0 4,0 m 0,0 m 2,0 4,0 m 0,0 m 2,0 4,0 m 0,0 m 2,0 4,0 m 0,0 m 2,0 4,0 m 0,0 m 2,0 4,0 m 0,0 m 2,0 4,0 m 0,0 m 2,0 2,0 0,-2 m 0,0 m 0,-2 0,-4 m 0,0 m 0,-2 0,-4 m 0,0 m 0,-2 0,-4 m 0,0 m 0,-2 0,-4 m 0,0 m 0,-2 0,-4 m 0,0 m 0,-2 0,-4 m 0,0 m 0,-2 0,-4 m 0,0 m 0,-2 0,-4 m 0,0 m 0,-2 0,-4 m 0,0 m -1.6,-0.4 -4,0 m 0,0 m -2,0 -4,0 m 0,0 m -2,0 -4,0 m 0,0 m -2,0 -4,0 m 0,0 m -2,0 -4,0 m 0,0 m -2,0 -4,0 m 0,0 m -2,0 -4,0 m 0,0 m -2,0 -4,0 m 0,0 m -2,0 -4,0 m 0,0 m -2,0 -4,0 m 0,0 m -2,0 -4,0 m 0,0 m -2,0 -4,0 m 0,0 m -2,0 -4,0 m 0,0 m -2,0 -4,0 m 0,0 m -2,0 -4,0 m 0,0 m -2,0 -4,0 m 0,0 m -2,0 -4,0 m 0,0 m -2,0 -4,0 m 0,0 m -2,0 -4,0 m 0,0 m -2,0 -4,0 m 0,0 m -2,0 -4,0 m 0,0 m -2,0 -4,0 m 0,0 m -2,0 -4,0 m 0,0 m -2,0 -4,0 m 0,0 m -2,0 -4,0 m 0,0 m -2,0 -4,0 m 0,0 m -2,0 -4,0 m 0,0 m -2,0 -4,0 m 0,0 m -2,0 -4,0 m 0,0 m -2,0 -4,0 m 0,0 m -2,0 -4,0 m 0,0 m -2,0 -4,0 m 0,0 m -2,0 -4,0 m 0,0 m -2,0 -4,0 m 0,0 m -2,0 -4,0 m 0,0 m -2,0 -4,0 m 0,0 m -2,0 -4,0 m 0,0 m -2,0 -4,0 m 0,0 m -2,0 -4,0 m 0,0 m -2,0 -4,0 m 0,0 m -2,0 -4,0 m 0,0 m -2,0 -4,0 m 0,0 m -2,0 -4,0 m 0,0 m -2,0 -4,0 m 0,0 m -2,0 -4,0 m 0,0 m -2,0 -4,0 m 0,0 m -2,0 -4,0 m 0,0 m -2,0 -4,0 m 0,0 m -2,0 -4,0 m 0,0 m -2,0 -4,0 m 0,0 m -2,0 -4,0 m 0,0 m -2,0 -4,0 m 0,0 m -2,0 -4,0 m 0,0 m -2,0 -4,0 m 0,0 m -2,0 -4,0 m 0,0 m -2,0 -4,0 m 0,0 m -2,0 -4,0 m 0,0 m -2,0 -4,0 m 0,0 m -2,0 -4,0 m 0,0 m -2,0 -4,0 m 0,0 m -2,0 -4,0 m 0,0 m -2,0 -4,0 m 0,0 m -2,0 -4,0 m 0,0 m -2,0 -4,0 m 0,0 m -2,0 -4,0 m 0,0 m -2,0 -4,0 m 0,0 m -2,0 -4,0 m 0,0 m -2,0 -4,0 m 0,0 m -2,0 -4,0 m 0,0 m -2,0 -4,0 m 0,0 m -2,0 -4,0 m 0,0 m -2,0 -4,0 m 0,0 m -2,0 -4,0 m 0,0 m -2,0 -4,0 m 0,0 m -2,0 -4,0 m 0,0 m -2,0 -4,0 m 0,0 m -2,0 -4,0 m 0,0 m -2,0 -4,0 m 0,0 m -2,0 -4,0 m 0,0 m -2,0 -4,0 m 0,0 m -2,0 -4,0 m 0,0 m -2,0 -4,0 m 0,0 m -2,0 -4,0 m 0,0 m -2,0 -4,0 m 0,0 m -2,0 -4,0 m 0,0 m -2,0 -4,0 m 0,0 m -2,0 -4,0 m 0,0 m -2,0 -4,0 m 0,0 m -2,0 -4,0 m 0,0 m -2,0 -4,0 m 0,0 m -2,0 -3.6,0 z" />
          </g>
        </g>
      </g>
    </g>
  </g>
  <g
     id="g86"
     transform="translate(34.6,341)">
    <text
       style="font-size:18px;font-style:normal;font-weight:normal;text-decoration:none;fill:#000000;stroke:none;font-family:Arial"
       id="text88"
       y="15"
       x="195.39999"
       text-decoration="none"
       font-weight="normal"
       font-style="normal"
       font-size="18px">Node.js (JavaScript)</text>
  </g>
  <g
     id="g90"
     transform="translate(171,81)">
    <g
       id="g92">
      <g
         id="g94"
         transform="scale(4.3,0.6)">
        <g
           id="g96">
          <path
             style="fill:#ffffff;stroke:none"
             inkscape:connector-curvature="0"
             id="path98"
             d="m 0,0 100,0 q 0,0 0,0 l 0,100 q 0,0 0,0 L 0,100 q 0,0 0,0 L 0,0 q 0,0 0,0 z" />
          <g
             id="g100"
             transform="scale(0.23255814,1.6666667)">
            <path
               style="fill:none;stroke:#333333;stroke-width:2;stroke-miterlimit:10"
               inkscape:connector-curvature="0"
               id="path102"
               stroke-miterlimit="10"
               d="m 0,0 430,0 q 0,0 0,0 l 0,60 q 0,0 0,0 L 0,60 q 0,0 0,0 L 0,0 q 0,0 0,0 z" />
          </g>
        </g>
        <g
           id="g104">
          <g
             id="g106"
             transform="scale(0.23255814,1.6666667)">
            <path
               style="opacity:0;fill:#000000;fill-opacity:0;stroke:none"
               inkscape:connector-curvature="0"
               id="path108"
               d="m 8.6,1.2 0,57 408.5,0 0,-56.4 -404.2,0 z" />
            <path
               style="opacity:0;fill:none;stroke:#3c7626;stroke-width:2;stroke-miterlimit:10"
               inkscape:connector-curvature="0"
               id="path110"
               stroke-miterlimit="10"
               d="m 8.6,1.2 m 0,0 0,4 m 0,0 m 0,2 0,4 m 0,0 m 0,2 0,4 m 0,0 m 0,2 0,4 m 0,0 m 0,2 0,4 m 0,0 m 0,2 0,4 m 0,0 m 0,2 0,4 m 0,0 m 0,2 0,4 m 0,0 m 0,2 0,4 m 0,0 m 0,2 0,3 1,0 m 0,0 m 2,0 4,0 m 0,0 m 2,0 4,0 m 0,0 m 2,0 4,0 m 0,0 m 2,0 4,0 m 0,0 m 2,0 4,0 m 0,0 m 2,0 4,0 m 0,0 m 2,0 4,0 m 0,0 m 2,0 4,0 m 0,0 m 2,0 4,0 m 0,0 m 2,0 4,0 m 0,0 m 2,0 4,0 m 0,0 m 2,0 4,0 m 0,0 m 2,0 4,0 m 0,0 m 2,0 4,0 m 0,0 m 2,0 4,0 m 0,0 m 2,0 4,0 m 0,0 m 2,0 4,0 m 0,0 m 2,0 4,0 m 0,0 m 2,0 4,0 m 0,0 m 2,0 4,0 m 0,0 m 2,0 4,0 m 0,0 m 2,0 4,0 m 0,0 m 2,0 4,0 m 0,0 m 2,0 4,0 m 0,0 m 2,0 4,0 m 0,0 m 2,0 4,0 m 0,0 m 2,0 4,0 m 0,0 m 2,0 4,0 m 0,0 m 2,0 4,0 m 0,0 m 2,0 4,0 m 0,0 m 2,0 4,0 m 0,0 m 2,0 4,0 m 0,0 m 2,0 4,0 m 0,0 m 2,0 4,0 m 0,0 m 2,0 4,0 m 0,0 m 2,0 4,0 m 0,0 m 2,0 4,0 m 0,0 m 2,0 4,0 m 0,0 m 2,0 4,0 m 0,0 m 2,0 4,0 m 0,0 m 2,0 4,0 m 0,0 m 2,0 4,0 m 0,0 m 2,0 4,0 m 0,0 m 2,0 4,0 m 0,0 m 2,0 4,0 m 0,0 m 2,0 4,0 m 0,0 m 2,0 4,0 m 0,0 m 2,0 4,0 m 0,0 m 2,0 4,0 m 0,0 m 2,0 4,0 m 0,0 m 2,0 4,0 m 0,0 m 2,0 4,0 m 0,0 m 2,0 4,0 m 0,0 m 2,0 4,0 m 0,0 m 2,0 4,0 m 0,0 m 2,0 4,0 m 0,0 m 2,0 4,0 m 0,0 m 2,0 4,0 m 0,0 m 2,0 4,0 m 0,0 m 2,0 4,0 m 0,0 m 2,0 4,0 m 0,0 m 2,0 4,0 m 0,0 m 2,0 4,0 m 0,0 m 2,0 4,0 m 0,0 m 2,0 4,0 m 0,0 m 2,0 4,0 m 0,0 m 2,0 4,0 m 0,0 m 2,0 3.5,0 0,-0.5 m 0,0 m 0,-2 0,-4 m 0,0 m 0,-2 0,-4 m 0,0 m 0,-2 0,-4 m 0,0 m 0,-2 0,-4 m 0,0 m 0,-2 0,-4 m 0,0 m 0,-2 0,-4 m 0,0 m 0,-2 0,-4 m 0,0 m 0,-2 0,-4 m 0,0 m 0,-2 0,-4 m 0,0 m -0.1,-1.9 -4,0 m 0,0 m -2,0 -4,0 m 0,0 m -2,0 -4,0 m 0,0 m -2,0 -4,0 m 0,0 m -2,0 -4,0 m 0,0 m -2,0 -4,0 m 0,0 m -2,0 -4,0 m 0,0 m -2,0 -4,0 m 0,0 m -2,0 -4,0 m 0,0 m -2,0 -4,0 m 0,0 m -2,0 -4,0 m 0,0 m -2,0 -4,0 m 0,0 m -2,0 -4,0 m 0,0 m -2,0 -4,0 m 0,0 m -2,0 -4,0 m 0,0 m -2,0 -4,0 m 0,0 m -2,0 -4,0 m 0,0 m -2,0 -4,0 m 0,0 m -2,0 -4,0 m 0,0 m -2,0 -4,0 m 0,0 m -2,0 -4,0 m 0,0 m -2,0 -4,0 m 0,0 m -2,0 -4,0 m 0,0 m -2,0 -4,0 m 0,0 m -2,0 -4,0 m 0,0 m -2,0 -4,0 m 0,0 m -2,0 -4,0 m 0,0 m -2,0 -4,0 m 0,0 m -2,0 -4,0 m 0,0 m -2,0 -4,0 m 0,0 m -2,0 -4,0 m 0,0 m -2,0 -4,0 m 0,0 m -2,0 -4,0 m 0,0 m -2,0 -4,0 m 0,0 m -2,0 -4,0 m 0,0 m -2,0 -4,0 m 0,0 m -2,0 -4,0 m 0,0 m -2,0 -4,0 m 0,0 m -2,0 -4,0 m 0,0 m -2,0 -4,0 m 0,0 m -2,0 -4,0 m 0,0 m -2,0 -4,0 m 0,0 m -2,0 -4,0 m 0,0 m -2,0 -4,0 m 0,0 m -2,0 -4,0 m 0,0 m -2,0 -4,0 m 0,0 m -2,0 -4,0 m 0,0 m -2,0 -4,0 m 0,0 m -2,0 -4,0 m 0,0 m -2,0 -4,0 m 0,0 m -2,0 -4,0 m 0,0 m -2,0 -4,0 m 0,0 m -2,0 -4,0 m 0,0 m -2,0 -4,0 m 0,0 m -2,0 -4,0 m 0,0 m -2,0 -4,0 m 0,0 m -2,0 -4,0 m 0,0 m -2,0 -4,0 m 0,0 m -2,0 -4,0 m 0,0 m -2,0 -4,0 m 0,0 m -2,0 -4,0 m 0,0 m -2,0 -4,0 m 0,0 m -2,0 -4,0 m 0,0 m -2,0 -4,0 m 0,0 m -2,0 -4,0 m 0,0 m -2,0 -4,0 m 0,0 m -2,0 -4,0 m 0,0 m -2,0 -2.1,0 z" />
          </g>
        </g>
      </g>
    </g>
  </g>
  <g
     id="g112"
     transform="translate(181.6,101)">
    <text
       style="font-size:18px;font-style:normal;font-weight:normal;text-decoration:none;fill:#000000;stroke:none;font-family:Arial"
       id="text114"
       y="15"
       x="72.400002"
       text-decoration="none"
       font-weight="normal"
       font-style="normal"
       font-size="18px">Browser (JavaScript/HTML/CSS)</text>
  </g>
  <g
     id="g116"
     transform="translate(171,141)">
    <g
       id="g118">
      <g
         id="g120"
         transform="scale(4.3,0.6)">
        <g
           id="g122">
          <path
             style="fill:#ffffff;stroke:none"
             inkscape:connector-curvature="0"
             id="path124"
             d="m 0,0 100,0 q 0,0 0,0 l 0,100 q 0,0 0,0 L 0,100 q 0,0 0,0 L 0,0 q 0,0 0,0 z" />
          <g
             id="g126"
             transform="scale(0.23255814,1.6666667)">
            <path
               style="fill:none;stroke:#333333;stroke-width:2;stroke-miterlimit:10"
               inkscape:connector-curvature="0"
               id="path128"
               stroke-miterlimit="10"
               d="m 0,0 430,0 q 0,0 0,0 l 0,60 q 0,0 0,0 L 0,60 q 0,0 0,0 L 0,0 q 0,0 0,0 z" />
          </g>
        </g>
        <g
           id="g130">
          <g
             id="g132"
             transform="scale(0.23255814,1.6666667)">
            <path
               style="opacity:0;fill:#000000;fill-opacity:0;stroke:none"
               inkscape:connector-curvature="0"
               id="path134"
               d="m 8.6,1.2 0,57 408.5,0 0,-56.4 -404.2,0 z" />
            <path
               style="opacity:0;fill:none;stroke:#3c7626;stroke-width:2;stroke-miterlimit:10"
               inkscape:connector-curvature="0"
               id="path136"
               stroke-miterlimit="10"
               d="m 8.6,1.2 m 0,0 0,4 m 0,0 m 0,2 0,4 m 0,0 m 0,2 0,4 m 0,0 m 0,2 0,4 m 0,0 m 0,2 0,4 m 0,0 m 0,2 0,4 m 0,0 m 0,2 0,4 m 0,0 m 0,2 0,4 m 0,0 m 0,2 0,4 m 0,0 m 0,2 0,3 1,0 m 0,0 m 2,0 4,0 m 0,0 m 2,0 4,0 m 0,0 m 2,0 4,0 m 0,0 m 2,0 4,0 m 0,0 m 2,0 4,0 m 0,0 m 2,0 4,0 m 0,0 m 2,0 4,0 m 0,0 m 2,0 4,0 m 0,0 m 2,0 4,0 m 0,0 m 2,0 4,0 m 0,0 m 2,0 4,0 m 0,0 m 2,0 4,0 m 0,0 m 2,0 4,0 m 0,0 m 2,0 4,0 m 0,0 m 2,0 4,0 m 0,0 m 2,0 4,0 m 0,0 m 2,0 4,0 m 0,0 m 2,0 4,0 m 0,0 m 2,0 4,0 m 0,0 m 2,0 4,0 m 0,0 m 2,0 4,0 m 0,0 m 2,0 4,0 m 0,0 m 2,0 4,0 m 0,0 m 2,0 4,0 m 0,0 m 2,0 4,0 m 0,0 m 2,0 4,0 m 0,0 m 2,0 4,0 m 0,0 m 2,0 4,0 m 0,0 m 2,0 4,0 m 0,0 m 2,0 4,0 m 0,0 m 2,0 4,0 m 0,0 m 2,0 4,0 m 0,0 m 2,0 4,0 m 0,0 m 2,0 4,0 m 0,0 m 2,0 4,0 m 0,0 m 2,0 4,0 m 0,0 m 2,0 4,0 m 0,0 m 2,0 4,0 m 0,0 m 2,0 4,0 m 0,0 m 2,0 4,0 m 0,0 m 2,0 4,0 m 0,0 m 2,0 4,0 m 0,0 m 2,0 4,0 m 0,0 m 2,0 4,0 m 0,0 m 2,0 4,0 m 0,0 m 2,0 4,0 m 0,0 m 2,0 4,0 m 0,0 m 2,0 4,0 m 0,0 m 2,0 4,0 m 0,0 m 2,0 4,0 m 0,0 m 2,0 4,0 m 0,0 m 2,0 4,0 m 0,0 m 2,0 4,0 m 0,0 m 2,0 4,0 m 0,0 m 2,0 4,0 m 0,0 m 2,0 4,0 m 0,0 m 2,0 4,0 m 0,0 m 2,0 4,0 m 0,0 m 2,0 4,0 m 0,0 m 2,0 4,0 m 0,0 m 2,0 4,0 m 0,0 m 2,0 4,0 m 0,0 m 2,0 4,0 m 0,0 m 2,0 4,0 m 0,0 m 2,0 4,0 m 0,0 m 2,0 4,0 m 0,0 m 2,0 4,0 m 0,0 m 2,0 3.5,0 0,-0.5 m 0,0 m 0,-2 0,-4 m 0,0 m 0,-2 0,-4 m 0,0 m 0,-2 0,-4 m 0,0 m 0,-2 0,-4 m 0,0 m 0,-2 0,-4 m 0,0 m 0,-2 0,-4 m 0,0 m 0,-2 0,-4 m 0,0 m 0,-2 0,-4 m 0,0 m 0,-2 0,-4 m 0,0 m -0.1,-1.9 -4,0 m 0,0 m -2,0 -4,0 m 0,0 m -2,0 -4,0 m 0,0 m -2,0 -4,0 m 0,0 m -2,0 -4,0 m 0,0 m -2,0 -4,0 m 0,0 m -2,0 -4,0 m 0,0 m -2,0 -4,0 m 0,0 m -2,0 -4,0 m 0,0 m -2,0 -4,0 m 0,0 m -2,0 -4,0 m 0,0 m -2,0 -4,0 m 0,0 m -2,0 -4,0 m 0,0 m -2,0 -4,0 m 0,0 m -2,0 -4,0 m 0,0 m -2,0 -4,0 m 0,0 m -2,0 -4,0 m 0,0 m -2,0 -4,0 m 0,0 m -2,0 -4,0 m 0,0 m -2,0 -4,0 m 0,0 m -2,0 -4,0 m 0,0 m -2,0 -4,0 m 0,0 m -2,0 -4,0 m 0,0 m -2,0 -4,0 m 0,0 m -2,0 -4,0 m 0,0 m -2,0 -4,0 m 0,0 m -2,0 -4,0 m 0,0 m -2,0 -4,0 m 0,0 m -2,0 -4,0 m 0,0 m -2,0 -4,0 m 0,0 m -2,0 -4,0 m 0,0 m -2,0 -4,0 m 0,0 m -2,0 -4,0 m 0,0 m -2,0 -4,0 m 0,0 m -2,0 -4,0 m 0,0 m -2,0 -4,0 m 0,0 m -2,0 -4,0 m 0,0 m -2,0 -4,0 m 0,0 m -2,0 -4,0 m 0,0 m -2,0 -4,0 m 0,0 m -2,0 -4,0 m 0,0 m -2,0 -4,0 m 0,0 m -2,0 -4,0 m 0,0 m -2,0 -4,0 m 0,0 m -2,0 -4,0 m 0,0 m -2,0 -4,0 m 0,0 m -2,0 -4,0 m 0,0 m -2,0 -4,0 m 0,0 m -2,0 -4,0 m 0,0 m -2,0 -4,0 m 0,0 m -2,0 -4,0 m 0,0 m -2,0 -4,0 m 0,0 m -2,0 -4,0 m 0,0 m -2,0 -4,0 m 0,0 m -2,0 -4,0 m 0,0 m -2,0 -4,0 m 0,0 m -2,0 -4,0 m 0,0 m -2,0 -4,0 m 0,0 m -2,0 -4,0 m 0,0 m -2,0 -4,0 m 0,0 m -2,0 -4,0 m 0,0 m -2,0 -4,0 m 0,0 m -2,0 -4,0 m 0,0 m -2,0 -4,0 m 0,0 m -2,0 -4,0 m 0,0 m -2,0 -4,0 m 0,0 m -2,0 -4,0 m 0,0 m -2,0 -2.1,0 z" />
          </g>
        </g>
      </g>
    </g>
  </g>
  <g
     id="g138"
     transform="translate(181.6,161)">
    <text
       style="font-size:18px;font-style:normal;font-weight:normal;text-decoration:none;fill:#000000;stroke:none;font-family:Arial"
       id="text140"
       y="15"
       x="80.400002"
       text-decoration="none"
       font-weight="normal"
       font-style="normal"
       font-size="18px">Grunt: Integration Build System</text>
  </g>
  <g
     id="g142"
     transform="translate(171,201)">
    <g
       id="g144">
      <g
         id="g146"
         transform="scale(1,1.2)">
        <g
           id="g148">
          <path
             style="fill:#ffffff;stroke:none"
             inkscape:connector-curvature="0"
             id="path150"
             d="m 0,0 100,0 q 0,0 0,0 l 0,100 q 0,0 0,0 L 0,100 q 0,0 0,0 L 0,0 q 0,0 0,0 z" />
          <g
             id="g152"
             transform="scale(1,0.83333333)">
            <path
               style="fill:none;stroke:#333333;stroke-width:2;stroke-miterlimit:10"
               inkscape:connector-curvature="0"
               id="path154"
               stroke-miterlimit="10"
               d="m 0,0 100,0 q 0,0 0,0 l 0,120 q 0,0 0,0 L 0,120 q 0,0 0,0 L 0,0 q 0,0 0,0 z" />
          </g>
        </g>
        <g
           id="g156">
          <g
             id="g158"
             transform="scale(1,0.83333333)">
            <path
               style="opacity:0;fill:#000000;fill-opacity:0;stroke:none"
               inkscape:connector-curvature="0"
               id="path160"
               d="m 2,2.4 0,114 95,0 0,-112.8 -94,0 z" />
            <path
               style="opacity:0;fill:none;stroke:#3c7626;stroke-width:2;stroke-miterlimit:10"
               inkscape:connector-curvature="0"
               id="path162"
               stroke-miterlimit="10"
               d="m 2,2.4 m 0,0 0,4 m 0,0 m 0,2 0,4 m 0,0 m 0,2 0,4 m 0,0 m 0,2 0,4 m 0,0 m 0,2 0,4 m 0,0 m 0,2 0,4 m 0,0 m 0,2 0,4 m 0,0 m 0,2 0,4 m 0,0 m 0,2 0,4 m 0,0 m 0,2 0,4 m 0,0 m 0,2 0,4 m 0,0 m 0,2 0,4 m 0,0 m 0,2 0,4 m 0,0 m 0,2 0,4 m 0,0 m 0,2 0,4 m 0,0 m 0,2 0,4 m 0,0 m 0,2 0,4 m 0,0 m 0,2 0,4 m 0,0 m 0,2 0,4 m 0,0 m 0,2 4,0 m 0,0 m 2,0 4,0 m 0,0 m 2,0 4,0 m 0,0 m 2,0 4,0 m 0,0 m 2,0 4,0 m 0,0 m 2,0 4,0 m 0,0 m 2,0 4,0 m 0,0 m 2,0 4,0 m 0,0 m 2,0 4,0 m 0,0 m 2,0 4,0 m 0,0 m 2,0 4,0 m 0,0 m 2,0 4,0 m 0,0 m 2,0 4,0 m 0,0 m 2,0 4,0 m 0,0 m 2,0 4,0 m 0,0 m 2,0 4,0 m 0,0 m 1,-1 0,-4 m 0,0 m 0,-2 0,-4 m 0,0 m 0,-2 0,-4 m 0,0 m 0,-2 0,-4 m 0,0 m 0,-2 0,-4 m 0,0 m 0,-2 0,-4 m 0,0 m 0,-2 0,-4 m 0,0 m 0,-2 0,-4 m 0,0 m 0,-2 0,-4 m 0,0 m 0,-2 0,-4 m 0,0 m 0,-2 0,-4 m 0,0 m 0,-2 0,-4 m 0,0 m 0,-2 0,-4 m 0,0 m 0,-2 0,-4 m 0,0 m 0,-2 0,-4 m 0,0 m 0,-2 0,-4 m 0,0 m 0,-2 0,-4 m 0,0 m 0,-2 0,-4 m 0,0 m 0,-2 0,-3.8 -0.2,0 m 0,0 m -2,0 -4,0 m 0,0 m -2,0 -4,0 m 0,0 m -2,0 -4,0 m 0,0 m -2,0 -4,0 m 0,0 m -2,0 -4,0 m 0,0 m -2,0 -4,0 m 0,0 m -2,0 -4,0 m 0,0 m -2,0 -4,0 m 0,0 m -2,0 -4,0 m 0,0 m -2,0 -4,0 m 0,0 m -2,0 -4,0 m 0,0 m -2,0 -4,0 m 0,0 m -2,0 -4,0 m 0,0 m -2,0 -4,0 m 0,0 m -2,0 -4,0 m 0,0 m -2,0 -1.8,0 z" />
          </g>
        </g>
      </g>
    </g>
  </g>
  <g
     id="g164"
     transform="translate(175,251)">
    <text
       style="font-size:18px;font-style:normal;font-weight:normal;text-decoration:none;fill:#000000;stroke:none;font-family:Arial"
       id="text166"
       y="15"
       x="26.5"
       text-decoration="none"
       font-weight="normal"
       font-style="normal"
       font-size="18px">Jade</text>
  </g>
  <g
     id="g168"
     transform="translate(271,261)">
    <g
       id="g170">
      <g
         id="g172"
         transform="scale(2,0.6)">
        <g
           id="g174">
          <path
             style="fill:#ffffff;stroke:none"
             inkscape:connector-curvature="0"
             id="path176"
             d="m 0,0 100,0 q 0,0 0,0 l 0,100 q 0,0 0,0 L 0,100 q 0,0 0,0 L 0,0 q 0,0 0,0 z" />
          <g
             id="g178"
             transform="scale(0.5,1.6666667)">
            <path
               style="fill:none;stroke:#333333;stroke-width:2;stroke-miterlimit:10"
               inkscape:connector-curvature="0"
               id="path180"
               stroke-miterlimit="10"
               d="m 0,0 200,0 q 0,0 0,0 l 0,60 q 0,0 0,0 L 0,60 q 0,0 0,0 L 0,0 q 0,0 0,0 z" />
          </g>
        </g>
        <g
           id="g182">
          <g
             id="g184"
             transform="scale(0.5,1.6666667)">
            <path
               style="opacity:0;fill:#000000;fill-opacity:0;stroke:none"
               inkscape:connector-curvature="0"
               id="path186"
               d="m 4,1.2 0,57 190,0 0,-56.4 -188,0 z" />
            <path
               style="opacity:0;fill:none;stroke:#3c7626;stroke-width:2;stroke-miterlimit:10"
               inkscape:connector-curvature="0"
               id="path188"
               stroke-miterlimit="10"
               d="m 4,1.2 m 0,0 0,4 m 0,0 m 0,2 0,4 m 0,0 m 0,2 0,4 m 0,0 m 0,2 0,4 m 0,0 m 0,2 0,4 m 0,0 m 0,2 0,4 m 0,0 m 0,2 0,4 m 0,0 m 0,2 0,4 m 0,0 m 0,2 0,4 m 0,0 m 0,2 0,3 1,0 m 0,0 m 2,0 4,0 m 0,0 m 2,0 4,0 m 0,0 m 2,0 4,0 m 0,0 m 2,0 4,0 m 0,0 m 2,0 4,0 m 0,0 m 2,0 4,0 m 0,0 m 2,0 4,0 m 0,0 m 2,0 4,0 m 0,0 m 2,0 4,0 m 0,0 m 2,0 4,0 m 0,0 m 2,0 4,0 m 0,0 m 2,0 4,0 m 0,0 m 2,0 4,0 m 0,0 m 2,0 4,0 m 0,0 m 2,0 4,0 m 0,0 m 2,0 4,0 m 0,0 m 2,0 4,0 m 0,0 m 2,0 4,0 m 0,0 m 2,0 4,0 m 0,0 m 2,0 4,0 m 0,0 m 2,0 4,0 m 0,0 m 2,0 4,0 m 0,0 m 2,0 4,0 m 0,0 m 2,0 4,0 m 0,0 m 2,0 4,0 m 0,0 m 2,0 4,0 m 0,0 m 2,0 4,0 m 0,0 m 2,0 4,0 m 0,0 m 2,0 4,0 m 0,0 m 2,0 4,0 m 0,0 m 2,0 4,0 m 0,0 m 2,0 1,0 0,-3 m 0,0 m 0,-2 0,-4 m 0,0 m 0,-2 0,-4 m 0,0 m 0,-2 0,-4 m 0,0 m 0,-2 0,-4 m 0,0 m 0,-2 0,-4 m 0,0 m 0,-2 0,-4 m 0,0 m 0,-2 0,-4 m 0,0 m 0,-2 0,-4 m 0,0 m 0,-2 0,-3.4 -0.6,0 m 0,0 m -2,0 -4,0 m 0,0 m -2,0 -4,0 m 0,0 m -2,0 -4,0 m 0,0 m -2,0 -4,0 m 0,0 m -2,0 -4,0 m 0,0 m -2,0 -4,0 m 0,0 m -2,0 -4,0 m 0,0 m -2,0 -4,0 m 0,0 m -2,0 -4,0 m 0,0 m -2,0 -4,0 m 0,0 m -2,0 -4,0 m 0,0 m -2,0 -4,0 m 0,0 m -2,0 -4,0 m 0,0 m -2,0 -4,0 m 0,0 m -2,0 -4,0 m 0,0 m -2,0 -4,0 m 0,0 m -2,0 -4,0 m 0,0 m -2,0 -4,0 m 0,0 m -2,0 -4,0 m 0,0 m -2,0 -4,0 m 0,0 m -2,0 -4,0 m 0,0 m -2,0 -4,0 m 0,0 m -2,0 -4,0 m 0,0 m -2,0 -4,0 m 0,0 m -2,0 -4,0 m 0,0 m -2,0 -4,0 m 0,0 m -2,0 -4,0 m 0,0 m -2,0 -4,0 m 0,0 m -2,0 -4,0 m 0,0 m -2,0 -4,0 m 0,0 m -2,0 -4,0 m 0,0 z" />
          </g>
        </g>
      </g>
    </g>
  </g>
  <g
     id="g190"
     transform="translate(277,281)">
    <text
       style="font-size:18px;font-style:normal;font-weight:normal;text-decoration:none;fill:#000000;stroke:none;font-family:Arial"
       id="text192"
       y="15"
       x="69.5"
       text-decoration="none"
       font-weight="normal"
       font-style="normal"
       font-size="18px">Stylus</text>
  </g>
  <g
     id="g194"
     transform="translate(271,201)">
    <g
       id="g196">
      <g
         id="g198"
         transform="scale(1,0.6)">
        <g
           id="g200">
          <path
             style="fill:#ffffff;stroke:none"
             inkscape:connector-curvature="0"
             id="path202"
             d="m 0,0 100,0 q 0,0 0,0 l 0,100 q 0,0 0,0 L 0,100 q 0,0 0,0 L 0,0 q 0,0 0,0 z" />
          <g
             id="g204"
             transform="scale(1,1.6666667)">
            <path
               style="fill:none;stroke:#333333;stroke-width:2;stroke-miterlimit:10"
               inkscape:connector-curvature="0"
               id="path206"
               stroke-miterlimit="10"
               d="m 0,0 100,0 q 0,0 0,0 l 0,60 q 0,0 0,0 L 0,60 q 0,0 0,0 L 0,0 q 0,0 0,0 z" />
          </g>
        </g>
        <g
           id="g208">
          <g
             id="g210"
             transform="scale(1,1.6666667)">
            <path
               style="opacity:0;fill:#000000;fill-opacity:0;stroke:none"
               inkscape:connector-curvature="0"
               id="path212"
               d="m 2,1.2 0,57 95,0 0,-56.4 -94,0 z" />
            <path
               style="opacity:0;fill:none;stroke:#3c7626;stroke-width:2;stroke-miterlimit:10"
               inkscape:connector-curvature="0"
               id="path214"
               stroke-miterlimit="10"
               d="m 2,1.2 m 0,0 0,4 m 0,0 m 0,2 0,4 m 0,0 m 0,2 0,4 m 0,0 m 0,2 0,4 m 0,0 m 0,2 0,4 m 0,0 m 0,2 0,4 m 0,0 m 0,2 0,4 m 0,0 m 0,2 0,4 m 0,0 m 0,2 0,4 m 0,0 m 0,2 0,3 1,0 m 0,0 m 2,0 4,0 m 0,0 m 2,0 4,0 m 0,0 m 2,0 4,0 m 0,0 m 2,0 4,0 m 0,0 m 2,0 4,0 m 0,0 m 2,0 4,0 m 0,0 m 2,0 4,0 m 0,0 m 2,0 4,0 m 0,0 m 2,0 4,0 m 0,0 m 2,0 4,0 m 0,0 m 2,0 4,0 m 0,0 m 2,0 4,0 m 0,0 m 2,0 4,0 m 0,0 m 2,0 4,0 m 0,0 m 2,0 4,0 m 0,0 m 2,0 2,0 0,-2 m 0,0 m 0,-2 0,-4 m 0,0 m 0,-2 0,-4 m 0,0 m 0,-2 0,-4 m 0,0 m 0,-2 0,-4 m 0,0 m 0,-2 0,-4 m 0,0 m 0,-2 0,-4 m 0,0 m 0,-2 0,-4 m 0,0 m 0,-2 0,-4 m 0,0 m 0,-2 0,-4 m 0,0 m -1.6,-0.4 -4,0 m 0,0 m -2,0 -4,0 m 0,0 m -2,0 -4,0 m 0,0 m -2,0 -4,0 m 0,0 m -2,0 -4,0 m 0,0 m -2,0 -4,0 m 0,0 m -2,0 -4,0 m 0,0 m -2,0 -4,0 m 0,0 m -2,0 -4,0 m 0,0 m -2,0 -4,0 m 0,0 m -2,0 -4,0 m 0,0 m -2,0 -4,0 m 0,0 m -2,0 -4,0 m 0,0 m -2,0 -4,0 m 0,0 m -2,0 -4,0 m 0,0 m -2,0 -2.4,0 z" />
          </g>
        </g>
      </g>
    </g>
  </g>
  <g
     id="g216"
     transform="translate(275,221)">
    <text
       style="font-size:18px;font-style:normal;font-weight:normal;text-decoration:none;fill:#000000;stroke:none;font-family:Arial"
       id="text218"
       y="15"
       x="34"
       text-decoration="none"
       font-weight="normal"
       font-style="normal"
       font-size="18px">nib</text>
  </g>
  <g
     id="g220"
     transform="translate(371,201)">
    <g
       id="g222">
      <g
         id="g224"
         transform="scale(1,0.6)">
        <g
           id="g226">
          <path
             style="fill:#ffffff;stroke:none"
             inkscape:connector-curvature="0"
             id="path228"
             d="m 0,0 100,0 q 0,0 0,0 l 0,100 q 0,0 0,0 L 0,100 q 0,0 0,0 L 0,0 q 0,0 0,0 z" />
          <g
             id="g230"
             transform="scale(1,1.6666667)">
            <path
               style="fill:none;stroke:#333333;stroke-width:2;stroke-miterlimit:10"
               inkscape:connector-curvature="0"
               id="path232"
               stroke-miterlimit="10"
               d="m 0,0 100,0 q 0,0 0,0 l 0,60 q 0,0 0,0 L 0,60 q 0,0 0,0 L 0,0 q 0,0 0,0 z" />
          </g>
        </g>
        <g
           id="g234">
          <g
             id="g236"
             transform="scale(1,1.6666667)">
            <path
               style="opacity:0;fill:#000000;fill-opacity:0;stroke:none"
               inkscape:connector-curvature="0"
               id="path238"
               d="m 2,1.2 0,57 95,0 0,-56.4 -94,0 z" />
            <path
               style="opacity:0;fill:none;stroke:#3c7626;stroke-width:2;stroke-miterlimit:10"
               inkscape:connector-curvature="0"
               id="path240"
               stroke-miterlimit="10"
               d="m 2,1.2 m 0,0 0,4 m 0,0 m 0,2 0,4 m 0,0 m 0,2 0,4 m 0,0 m 0,2 0,4 m 0,0 m 0,2 0,4 m 0,0 m 0,2 0,4 m 0,0 m 0,2 0,4 m 0,0 m 0,2 0,4 m 0,0 m 0,2 0,4 m 0,0 m 0,2 0,3 1,0 m 0,0 m 2,0 4,0 m 0,0 m 2,0 4,0 m 0,0 m 2,0 4,0 m 0,0 m 2,0 4,0 m 0,0 m 2,0 4,0 m 0,0 m 2,0 4,0 m 0,0 m 2,0 4,0 m 0,0 m 2,0 4,0 m 0,0 m 2,0 4,0 m 0,0 m 2,0 4,0 m 0,0 m 2,0 4,0 m 0,0 m 2,0 4,0 m 0,0 m 2,0 4,0 m 0,0 m 2,0 4,0 m 0,0 m 2,0 4,0 m 0,0 m 2,0 2,0 0,-2 m 0,0 m 0,-2 0,-4 m 0,0 m 0,-2 0,-4 m 0,0 m 0,-2 0,-4 m 0,0 m 0,-2 0,-4 m 0,0 m 0,-2 0,-4 m 0,0 m 0,-2 0,-4 m 0,0 m 0,-2 0,-4 m 0,0 m 0,-2 0,-4 m 0,0 m 0,-2 0,-4 m 0,0 m -1.6,-0.4 -4,0 m 0,0 m -2,0 -4,0 m 0,0 m -2,0 -4,0 m 0,0 m -2,0 -4,0 m 0,0 m -2,0 -4,0 m 0,0 m -2,0 -4,0 m 0,0 m -2,0 -4,0 m 0,0 m -2,0 -4,0 m 0,0 m -2,0 -4,0 m 0,0 m -2,0 -4,0 m 0,0 m -2,0 -4,0 m 0,0 m -2,0 -4,0 m 0,0 m -2,0 -4,0 m 0,0 m -2,0 -4,0 m 0,0 m -2,0 -4,0 m 0,0 m -2,0 -2.4,0 z" />
          </g>
        </g>
      </g>
    </g>
  </g>
  <g
     id="g242"
     transform="translate(375,221)">
    <text
       style="font-size:18px;font-style:normal;font-weight:normal;text-decoration:none;fill:#000000;stroke:none;font-family:Arial"
       id="text244"
       y="15"
       x="17.5"
       text-decoration="none"
       font-weight="normal"
       font-style="normal"
       font-size="18px">rupture</text>
  </g>
  <g
     id="g246"
     transform="translate(371,21)">
    <g
       id="g248">
      <g
         id="g250"
         transform="scale(2.3,0.6)">
        <g
           id="g252">
          <path
             style="fill:#ffffff;stroke:none"
             inkscape:connector-curvature="0"
             id="path254"
             d="m 0,0 100,0 q 0,0 0,0 l 0,100 q 0,0 0,0 L 0,100 q 0,0 0,0 L 0,0 q 0,0 0,0 z" />
          <g
             id="g256"
             transform="scale(0.43478261,1.6666667)">
            <path
               style="fill:none;stroke:#333333;stroke-width:2;stroke-miterlimit:10"
               inkscape:connector-curvature="0"
               id="path258"
               stroke-miterlimit="10"
               d="m 0,0 230,0 q 0,0 0,0 l 0,60 q 0,0 0,0 L 0,60 q 0,0 0,0 L 0,0 q 0,0 0,0 z" />
          </g>
        </g>
        <g
           id="g260">
          <g
             id="g262"
             transform="scale(0.43478261,1.6666667)">
            <path
               style="opacity:0;fill:#000000;fill-opacity:0;stroke:none"
               inkscape:connector-curvature="0"
               id="path264"
               d="m 4.6,1.2 0,57 218.5,0 0,-56.4 -216.2,0 z" />
            <path
               style="opacity:0;fill:none;stroke:#3c7626;stroke-width:2;stroke-miterlimit:10"
               inkscape:connector-curvature="0"
               id="path266"
               stroke-miterlimit="10"
               d="m 4.6,1.2 m 0,0 0,4 m 0,0 m 0,2 0,4 m 0,0 m 0,2 0,4 m 0,0 m 0,2 0,4 m 0,0 m 0,2 0,4 m 0,0 m 0,2 0,4 m 0,0 m 0,2 0,4 m 0,0 m 0,2 0,4 m 0,0 m 0,2 0,4 m 0,0 m 0,2 0,3 1,0 m 0,0 m 2,0 4,0 m 0,0 m 2,0 4,0 m 0,0 m 2,0 4,0 m 0,0 m 2,0 4,0 m 0,0 m 2,0 4,0 m 0,0 m 2,0 4,0 m 0,0 m 2,0 4,0 m 0,0 m 2,0 4,0 m 0,0 m 2,0 4,0 m 0,0 m 2,0 4,0 m 0,0 m 2,0 4,0 m 0,0 m 2,0 4,0 m 0,0 m 2,0 4,0 m 0,0 m 2,0 4,0 m 0,0 m 2,0 4,0 m 0,0 m 2,0 4,0 m 0,0 m 2,0 4,0 m 0,0 m 2,0 4,0 m 0,0 m 2,0 4,0 m 0,0 m 2,0 4,0 m 0,0 m 2,0 4,0 m 0,0 m 2,0 4,0 m 0,0 m 2,0 4,0 m 0,0 m 2,0 4,0 m 0,0 m 2,0 4,0 m 0,0 m 2,0 4,0 m 0,0 m 2,0 4,0 m 0,0 m 2,0 4,0 m 0,0 m 2,0 4,0 m 0,0 m 2,0 4,0 m 0,0 m 2,0 4,0 m 0,0 m 2,0 4,0 m 0,0 m 2,0 4,0 m 0,0 m 2,0 4,0 m 0,0 m 2,0 4,0 m 0,0 m 2,0 4,0 m 0,0 m 1.5,-0.5 0,-4 m 0,0 m 0,-2 0,-4 m 0,0 m 0,-2 0,-4 m 0,0 m 0,-2 0,-4 m 0,0 m 0,-2 0,-4 m 0,0 m 0,-2 0,-4 m 0,0 m 0,-2 0,-4 m 0,0 m 0,-2 0,-4 m 0,0 m 0,-2 0,-4 m 0,0 m 0,-2 0,-1.9 -2.1,0 m 0,0 m -2,0 -4,0 m 0,0 m -2,0 -4,0 m 0,0 m -2,0 -4,0 m 0,0 m -2,0 -4,0 m 0,0 m -2,0 -4,0 m 0,0 m -2,0 -4,0 m 0,0 m -2,0 -4,0 m 0,0 m -2,0 -4,0 m 0,0 m -2,0 -4,0 m 0,0 m -2,0 -4,0 m 0,0 m -2,0 -4,0 m 0,0 m -2,0 -4,0 m 0,0 m -2,0 -4,0 m 0,0 m -2,0 -4,0 m 0,0 m -2,0 -4,0 m 0,0 m -2,0 -4,0 m 0,0 m -2,0 -4,0 m 0,0 m -2,0 -4,0 m 0,0 m -2,0 -4,0 m 0,0 m -2,0 -4,0 m 0,0 m -2,0 -4,0 m 0,0 m -2,0 -4,0 m 0,0 m -2,0 -4,0 m 0,0 m -2,0 -4,0 m 0,0 m -2,0 -4,0 m 0,0 m -2,0 -4,0 m 0,0 m -2,0 -4,0 m 0,0 m -2,0 -4,0 m 0,0 m -2,0 -4,0 m 0,0 m -2,0 -4,0 m 0,0 m -2,0 -4,0 m 0,0 m -2,0 -4,0 m 0,0 m -2,0 -4,0 m 0,0 m -2,0 -4,0 m 0,0 m -2,0 -4,0 m 0,0 m -2,0 -2.1,0 z" />
          </g>
        </g>
      </g>
    </g>
  </g>
  <g
     id="g268"
     transform="translate(377.6,41)">
    <text
       style="font-size:18px;font-style:normal;font-weight:normal;text-decoration:none;fill:#000000;stroke:none;font-family:Arial"
       id="text270"
       y="15"
       x="69.900002"
       text-decoration="none"
       font-weight="normal"
       font-style="normal"
       font-size="18px">Bootstrap</text>
  </g>
  <g
     id="g272"
     transform="translate(21,141)">
    <g
       id="g274">
      <g
         id="g276"
         transform="scale(1.5,1.8)">
        <g
           id="g278">
          <path
             style="fill:#ffffff;stroke:none"
             inkscape:connector-curvature="0"
             id="path280"
             d="m 0,0 100,0 q 0,0 0,0 l 0,100 q 0,0 0,0 L 0,100 q 0,0 0,0 L 0,0 q 0,0 0,0 z" />
          <g
             id="g282"
             transform="scale(0.66666667,0.55555556)">
            <path
               style="fill:none;stroke:#333333;stroke-width:2;stroke-miterlimit:10"
               inkscape:connector-curvature="0"
               id="path284"
               stroke-miterlimit="10"
               d="m 0,0 150,0 q 0,0 0,0 l 0,180 q 0,0 0,0 L 0,180 q 0,0 0,0 L 0,0 q 0,0 0,0 z" />
          </g>
        </g>
        <g
           id="g286">
          <g
             id="g288"
             transform="scale(0.66666667,0.55555556)">
            <path
               style="opacity:0;fill:#000000;fill-opacity:0;stroke:none"
               inkscape:connector-curvature="0"
               id="path290"
               d="m 3,3.6 0,171 142.5,0 0,-169.2 -141,0 z" />
            <path
               style="opacity:0;fill:none;stroke:#3c7626;stroke-width:2;stroke-miterlimit:10"
               inkscape:connector-curvature="0"
               id="path292"
               stroke-miterlimit="10"
               d="m 3,3.6 m 0,0 0,4 m 0,0 m 0,2 0,4 m 0,0 m 0,2 0,4 m 0,0 m 0,2 0,4 m 0,0 m 0,2 0,4 m 0,0 m 0,2 0,4 m 0,0 m 0,2 0,4 m 0,0 m 0,2 0,4 m 0,0 m 0,2 0,4 m 0,0 m 0,2 0,4 m 0,0 m 0,2 0,4 m 0,0 m 0,2 0,4 m 0,0 m 0,2 0,4 m 0,0 m 0,2 0,4 m 0,0 m 0,2 0,4 m 0,0 m 0,2 0,4 m 0,0 m 0,2 0,4 m 0,0 m 0,2 0,4 m 0,0 m 0,2 0,4 m 0,0 m 0,2 0,4 m 0,0 m 0,2 0,4 m 0,0 m 0,2 0,4 m 0,0 m 0,2 0,4 m 0,0 m 0,2 0,4 m 0,0 m 0,2 0,4 m 0,0 m 0,2 0,4 m 0,0 m 0,2 0,4 m 0,0 m 0,2 0,4 m 0,0 m 0,2 0,3 1,0 m 0,0 m 2,0 4,0 m 0,0 m 2,0 4,0 m 0,0 m 2,0 4,0 m 0,0 m 2,0 4,0 m 0,0 m 2,0 4,0 m 0,0 m 2,0 4,0 m 0,0 m 2,0 4,0 m 0,0 m 2,0 4,0 m 0,0 m 2,0 4,0 m 0,0 m 2,0 4,0 m 0,0 m 2,0 4,0 m 0,0 m 2,0 4,0 m 0,0 m 2,0 4,0 m 0,0 m 2,0 4,0 m 0,0 m 2,0 4,0 m 0,0 m 2,0 4,0 m 0,0 m 2,0 4,0 m 0,0 m 2,0 4,0 m 0,0 m 2,0 4,0 m 0,0 m 2,0 4,0 m 0,0 m 2,0 4,0 m 0,0 m 2,0 4,0 m 0,0 m 2,0 4,0 m 0,0 m 2,0 1.5,0 0,-2.5 m 0,0 m 0,-2 0,-4 m 0,0 m 0,-2 0,-4 m 0,0 m 0,-2 0,-4 m 0,0 m 0,-2 0,-4 m 0,0 m 0,-2 0,-4 m 0,0 m 0,-2 0,-4 m 0,0 m 0,-2 0,-4 m 0,0 m 0,-2 0,-4 m 0,0 m 0,-2 0,-4 m 0,0 m 0,-2 0,-4 m 0,0 m 0,-2 0,-4 m 0,0 m 0,-2 0,-4 m 0,0 m 0,-2 0,-4 m 0,0 m 0,-2 0,-4 m 0,0 m 0,-2 0,-4 m 0,0 m 0,-2 0,-4 m 0,0 m 0,-2 0,-4 m 0,0 m 0,-2 0,-4 m 0,0 m 0,-2 0,-4 m 0,0 m 0,-2 0,-4 m 0,0 m 0,-2 0,-4 m 0,0 m 0,-2 0,-4 m 0,0 m 0,-2 0,-4 m 0,0 m 0,-2 0,-4 m 0,0 m 0,-2 0,-4 m 0,0 m 0,-2 0,-4 m 0,0 m 0,-2 0,-4 m 0,0 m 0,-2 0,-2.7 -1.3,0 m 0,0 m -2,0 -4,0 m 0,0 m -2,0 -4,0 m 0,0 m -2,0 -4,0 m 0,0 m -2,0 -4,0 m 0,0 m -2,0 -4,0 m 0,0 m -2,0 -4,0 m 0,0 m -2,0 -4,0 m 0,0 m -2,0 -4,0 m 0,0 m -2,0 -4,0 m 0,0 m -2,0 -4,0 m 0,0 m -2,0 -4,0 m 0,0 m -2,0 -4,0 m 0,0 m -2,0 -4,0 m 0,0 m -2,0 -4,0 m 0,0 m -2,0 -4,0 m 0,0 m -2,0 -4,0 m 0,0 m -2,0 -4,0 m 0,0 m -2,0 -4,0 m 0,0 m -2,0 -4,0 m 0,0 m -2,0 -4,0 m 0,0 m -2,0 -4,0 m 0,0 m -2,0 -4,0 m 0,0 m -2,0 -4,0 m 0,0 z" />
          </g>
        </g>
      </g>
    </g>
  </g>
  <g
     id="g294"
     transform="translate(26,221)">
    <text
       style="font-size:18px;font-style:normal;font-weight:normal;text-decoration:none;fill:#000000;stroke:none;font-family:Arial"
       id="text296"
       y="15"
       x="38"
       text-decoration="none"
       font-weight="normal"
       font-style="normal"
       font-size="18px">Express</text>
  </g>
  <g
     id="g298"
     transform="translate(407.66667,381)">
    <g
       id="g300">
      <g
         id="g302"
         transform="scale(1.9333333,0.6)">
        <g
           id="g304">
          <path
             style="fill:#ffffff;stroke:none"
             inkscape:connector-curvature="0"
             id="path306"
             d="m 0,0 100,0 q 0,0 0,0 l 0,100 q 0,0 0,0 L 0,100 q 0,0 0,0 L 0,0 q 0,0 0,0 z" />
          <g
             id="g308"
             transform="scale(0.51724138,1.6666667)">
            <path
               style="fill:none;stroke:#333333;stroke-width:2;stroke-miterlimit:10"
               inkscape:connector-curvature="0"
               id="path310"
               stroke-miterlimit="10"
               d="m 0,0 193.33333,0 q 0,0 0,0 l 0,60 q 0,0 0,0 L 0,60 q 0,0 0,0 L 0,0 q 0,0 0,0 z" />
          </g>
        </g>
        <g
           id="g312">
          <g
             id="g314"
             transform="scale(0.51724138,1.6666667)">
            <path
               style="opacity:0;fill:#000000;fill-opacity:0;stroke:none"
               inkscape:connector-curvature="0"
               id="path316"
               d="m 3.8666667,1.2 0,57 183.6666633,0 0,-56.4 L 5.8,1.8 z" />
            <path
               style="opacity:0;fill:none;stroke:#3c7626;stroke-width:2;stroke-miterlimit:10"
               inkscape:connector-curvature="0"
               id="path318"
               stroke-miterlimit="10"
               d="m 3.8666667,1.2 m 0,0 0,4 m 0,0 m 0,2 0,4 m 0,0 m 0,2 0,4 m 0,0 m 0,2 0,4 m 0,0 m 0,2 0,4 m 0,0 m 0,2 0,4 m 0,0 m 0,2 0,4 m 0,0 m 0,2 0,4 m 0,0 m 0,2 0,4 m 0,0 m 0,2 0,3 1,0 m 0,0 m 2,0 4.0000003,0 m 0,0 m 2,0 4,0 m 0,0 m 2,0 4,0 m 0,0 m 2,0 4,0 m 0,0 m 2,0 4,0 m 0,0 m 2,0 4,0 m 0,0 m 2,0 4,0 m 0,0 m 2,0 4,0 m 0,0 m 2,0 4,0 m 0,0 m 2,0 4,0 m 0,0 m 2,0 4,0 m 0,0 m 2,0 4,0 m 0,0 m 2,0 4,0 m 0,0 m 2,0 4,0 m 0,0 m 2,0 4,0 m 0,0 m 2,0 4.000003,0 m 0,0 m 2,0 4,0 m 0,0 m 2,0 4,0 m 0,0 m 2,0 4,0 m 0,0 m 2,0 4,0 m 0,0 m 2,0 4,0 m 0,0 m 2,0 4,0 m 0,0 m 2,0 4,0 m 0,0 m 2,0 4,0 m 0,0 m 2,0 4,0 m 0,0 m 2,0 4,0 m 0,0 m 2,0 4,0 m 0,0 m 2,0 4,0 m 0,0 m 2,0 4,0 m 0,0 m 2,0 4,0 m 0,0 m 2,0 0.66666,0 0,-3.333333 m 0,0 m 0,-2 0,-4 m 0,0 m 0,-2 0,-4 m 0,0 m 0,-2 0,-4 m 0,0 m 0,-2 0,-4 m 0,0 m 0,-2 0,-4 m 0,0 m 0,-2 0,-4 m 0,0 m 0,-2 0,-4 m 0,0 m 0,-2 0,-4.0000003 m 0,0 m 0,-2 0,-3.0666667 -0.93333,0 m 0,0 m -2,0 -4,0 m 0,0 m -2,0 -4,0 m 0,0 m -2,0 -4,0 m 0,0 m -2,0 -4,0 m 0,0 m -2,0 -4,0 m 0,0 m -2,0 -4,0 m 0,0 m -2,0 -4,0 m 0,0 m -2,0 -4,0 m 0,0 m -2,0 -4,0 m 0,0 m -2,0 -4,0 m 0,0 m -2,0 -4,0 m 0,0 m -2,0 -4,0 m 0,0 m -2,0 -4,0 m 0,0 m -2,0 -4,0 m 0,0 m -2,0 -4,0 m 0,0 m -2,0 -4,0 m 0,0 m -2,0 -4,0 m 0,0 m -2,0 -4,0 m 0,0 m -2,0 -4,0 m 0,0 m -2,0 -4,0 m 0,0 m -2,0 -4,0 m 0,0 m -2,0 -4,0 m 0,0 m -2,0 -4,0 m 0,0 m -2,0 -4,0 m 0,0 m -2,0 -4,0 m 0,0 m -2,0 -4,0 m 0,0 m -2,0 -4,0 m 0,0 m -2,0 -4,0 m 0,0 m -2,0 -4,0 m 0,0 m -2,0 -4,0 m 0,0 z" />
          </g>
        </g>
      </g>
    </g>
  </g>
  <g
     id="g320"
     transform="translate(413.53333,401)">
    <text
       style="font-size:18px;font-style:normal;font-weight:normal;text-decoration:none;fill:#000000;stroke:none;font-family:Arial"
       id="text322"
       y="15"
       x="72.300003"
       text-decoration="none"
       font-weight="normal"
       font-style="normal"
       font-size="18px">libuv</text>
  </g>
  <g
     id="g324"
     transform="translate(471,201)">
    <g
       id="g326">
      <g
         id="g328"
         transform="scale(1.3,1.2)">
        <g
           id="g330">
          <path
             style="fill:#ffffff;stroke:none"
             inkscape:connector-curvature="0"
             id="path332"
             d="m 0,0 100,0 q 0,0 0,0 l 0,100 q 0,0 0,0 L 0,100 q 0,0 0,0 L 0,0 q 0,0 0,0 z" />
          <g
             id="g334"
             transform="scale(0.76923077,0.83333333)">
            <path
               style="fill:none;stroke:#333333;stroke-width:2;stroke-miterlimit:10"
               inkscape:connector-curvature="0"
               id="path336"
               stroke-miterlimit="10"
               d="m 0,0 130,0 q 0,0 0,0 l 0,120 q 0,0 0,0 L 0,120 q 0,0 0,0 L 0,0 q 0,0 0,0 z" />
          </g>
        </g>
        <g
           id="g338">
          <g
             id="g340"
             transform="scale(0.76923077,0.83333333)">
            <path
               style="opacity:0;fill:#000000;fill-opacity:0;stroke:none"
               inkscape:connector-curvature="0"
               id="path342"
               d="m 2.6,2.4 0,114 123.5,0 0,-112.8 -122.2,0 z" />
            <path
               style="opacity:0;fill:none;stroke:#3c7626;stroke-width:2;stroke-miterlimit:10"
               inkscape:connector-curvature="0"
               id="path344"
               stroke-miterlimit="10"
               d="m 2.6,2.4 m 0,0 0,4 m 0,0 m 0,2 0,4 m 0,0 m 0,2 0,4 m 0,0 m 0,2 0,4 m 0,0 m 0,2 0,4 m 0,0 m 0,2 0,4 m 0,0 m 0,2 0,4 m 0,0 m 0,2 0,4 m 0,0 m 0,2 0,4 m 0,0 m 0,2 0,4 m 0,0 m 0,2 0,4 m 0,0 m 0,2 0,4 m 0,0 m 0,2 0,4 m 0,0 m 0,2 0,4 m 0,0 m 0,2 0,4 m 0,0 m 0,2 0,4 m 0,0 m 0,2 0,4 m 0,0 m 0,2 0,4 m 0,0 m 0,2 0,4 m 0,0 m 0,2 4,0 m 0,0 m 2,0 4,0 m 0,0 m 2,0 4,0 m 0,0 m 2,0 4,0 m 0,0 m 2,0 4,0 m 0,0 m 2,0 4,0 m 0,0 m 2,0 4,0 m 0,0 m 2,0 4,0 m 0,0 m 2,0 4,0 m 0,0 m 2,0 4,0 m 0,0 m 2,0 4,0 m 0,0 m 2,0 4,0 m 0,0 m 2,0 4,0 m 0,0 m 2,0 4,0 m 0,0 m 2,0 4,0 m 0,0 m 2,0 4,0 m 0,0 m 2,0 4,0 m 0,0 m 2,0 4,0 m 0,0 m 2,0 4,0 m 0,0 m 2,0 4,0 m 0,0 m 2,0 3.5,0 0,-0.5 m 0,0 m 0,-2 0,-4 m 0,0 m 0,-2 0,-4 m 0,0 m 0,-2 0,-4 m 0,0 m 0,-2 0,-4 m 0,0 m 0,-2 0,-4 m 0,0 m 0,-2 0,-4 m 0,0 m 0,-2 0,-4 m 0,0 m 0,-2 0,-4 m 0,0 m 0,-2 0,-4 m 0,0 m 0,-2 0,-4 m 0,0 m 0,-2 0,-4 m 0,0 m 0,-2 0,-4 m 0,0 m 0,-2 0,-4 m 0,0 m 0,-2 0,-4 m 0,0 m 0,-2 0,-4 m 0,0 m 0,-2 0,-4 m 0,0 m 0,-2 0,-4 m 0,0 m 0,-2 0,-4 m 0,0 m 0,-2 0,-2.3 -1.7,0 m 0,0 m -2,0 -4,0 m 0,0 m -2,0 -4,0 m 0,0 m -2,0 -4,0 m 0,0 m -2,0 -4,0 m 0,0 m -2,0 -4,0 m 0,0 m -2,0 -4,0 m 0,0 m -2,0 -4,0 m 0,0 m -2,0 -4,0 m 0,0 m -2,0 -4,0 m 0,0 m -2,0 -4,0 m 0,0 m -2,0 -4,0 m 0,0 m -2,0 -4,0 m 0,0 m -2,0 -4,0 m 0,0 m -2,0 -4,0 m 0,0 m -2,0 -4,0 m 0,0 m -2,0 -4,0 m 0,0 m -2,0 -4,0 m 0,0 m -2,0 -4,0 m 0,0 m -2,0 -4,0 m 0,0 m -2,0 -4,0 m 0,0 z" />
          </g>
        </g>
      </g>
    </g>
  </g>
  <g
     id="g346"
     transform="translate(475.6,241)">
    <text
       style="font-size:18px;font-style:normal;font-weight:normal;text-decoration:none;fill:#000000;stroke:none;font-family:Arial"
       id="text348"
       y="15"
       x="18.4"
       text-decoration="none"
       font-weight="normal"
       font-style="normal"
       font-size="18px">JavaScript</text>
    <text
       style="font-size:18px;font-style:normal;font-weight:normal;text-decoration:none;fill:#000000;stroke:none;font-family:Arial"
       id="text350"
       y="36"
       x="8.3999996"
       text-decoration="none"
       font-weight="normal"
       font-style="normal"
       font-size="18px">(for Browser)</text>
  </g>
  <g
     id="g352"
     transform="translate(21,81)">
    <g
       id="g354">
      <g
         id="g356"
         transform="scale(1.5,0.6)">
        <g
           id="g358">
          <path
             style="fill:#ffffff;stroke:none"
             inkscape:connector-curvature="0"
             id="path360"
             d="m 0,0 100,0 q 0,0 0,0 l 0,100 q 0,0 0,0 L 0,100 q 0,0 0,0 L 0,0 q 0,0 0,0 z" />
          <g
             id="g362"
             transform="scale(0.66666667,1.6666667)">
            <path
               style="fill:none;stroke:#333333;stroke-width:2;stroke-miterlimit:10"
               inkscape:connector-curvature="0"
               id="path364"
               stroke-miterlimit="10"
               d="m 0,0 150,0 q 0,0 0,0 l 0,60 q 0,0 0,0 L 0,60 q 0,0 0,0 L 0,0 q 0,0 0,0 z" />
          </g>
        </g>
        <g
           id="g366">
          <g
             id="g368"
             transform="scale(0.66666667,1.6666667)">
            <path
               style="opacity:0;fill:#000000;fill-opacity:0;stroke:none"
               inkscape:connector-curvature="0"
               id="path370"
               d="m 3,1.2 0,57 142.5,0 0,-56.4 -141,0 z" />
            <path
               style="opacity:0;fill:none;stroke:#3c7626;stroke-width:2;stroke-miterlimit:10"
               inkscape:connector-curvature="0"
               id="path372"
               stroke-miterlimit="10"
               d="m 3,1.2 m 0,0 0,4 m 0,0 m 0,2 0,4 m 0,0 m 0,2 0,4 m 0,0 m 0,2 0,4 m 0,0 m 0,2 0,4 m 0,0 m 0,2 0,4 m 0,0 m 0,2 0,4 m 0,0 m 0,2 0,4 m 0,0 m 0,2 0,4 m 0,0 m 0,2 0,3 1,0 m 0,0 m 2,0 4,0 m 0,0 m 2,0 4,0 m 0,0 m 2,0 4,0 m 0,0 m 2,0 4,0 m 0,0 m 2,0 4,0 m 0,0 m 2,0 4,0 m 0,0 m 2,0 4,0 m 0,0 m 2,0 4,0 m 0,0 m 2,0 4,0 m 0,0 m 2,0 4,0 m 0,0 m 2,0 4,0 m 0,0 m 2,0 4,0 m 0,0 m 2,0 4,0 m 0,0 m 2,0 4,0 m 0,0 m 2,0 4,0 m 0,0 m 2,0 4,0 m 0,0 m 2,0 4,0 m 0,0 m 2,0 4,0 m 0,0 m 2,0 4,0 m 0,0 m 2,0 4,0 m 0,0 m 2,0 4,0 m 0,0 m 2,0 4,0 m 0,0 m 2,0 4,0 m 0,0 m 2,0 1.5,0 0,-2.5 m 0,0 m 0,-2 0,-4 m 0,0 m 0,-2 0,-4 m 0,0 m 0,-2 0,-4 m 0,0 m 0,-2 0,-4 m 0,0 m 0,-2 0,-4 m 0,0 m 0,-2 0,-4 m 0,0 m 0,-2 0,-4 m 0,0 m 0,-2 0,-4 m 0,0 m 0,-2 0,-3.9 -0.1,0 m 0,0 m -2,0 -4,0 m 0,0 m -2,0 -4,0 m 0,0 m -2,0 -4,0 m 0,0 m -2,0 -4,0 m 0,0 m -2,0 -4,0 m 0,0 m -2,0 -4,0 m 0,0 m -2,0 -4,0 m 0,0 m -2,0 -4,0 m 0,0 m -2,0 -4,0 m 0,0 m -2,0 -4,0 m 0,0 m -2,0 -4,0 m 0,0 m -2,0 -4,0 m 0,0 m -2,0 -4,0 m 0,0 m -2,0 -4,0 m 0,0 m -2,0 -4,0 m 0,0 m -2,0 -4,0 m 0,0 m -2,0 -4,0 m 0,0 m -2,0 -4,0 m 0,0 m -2,0 -4,0 m 0,0 m -2,0 -4,0 m 0,0 m -2,0 -4,0 m 0,0 m -2,0 -4,0 m 0,0 m -2,0 -4,0 m 0,0 m -2,0 -0.9,0 z" />
          </g>
        </g>
      </g>
    </g>
  </g>
  <g
     id="g374"
     transform="translate(26,101)">
    <text
       style="font-size:18px;font-style:normal;font-weight:normal;text-decoration:none;fill:#000000;stroke:none;font-family:Arial"
       id="text376"
       y="15"
       x="24.5"
       text-decoration="none"
       font-weight="normal"
       font-style="normal"
       font-size="18px">AJAX(XHR)</text>
  </g>
  <g
     id="g378"
     transform="translate(21,21)">
    <g
       id="g380">
      <g
         id="g382"
         transform="scale(3.5,0.6)">
        <g
           id="g384">
          <path
             style="fill:#ffffff;stroke:none"
             inkscape:connector-curvature="0"
             id="path386"
             d="m 0,0 100,0 q 0,0 0,0 l 0,100 q 0,0 0,0 L 0,100 q 0,0 0,0 L 0,0 q 0,0 0,0 z" />
          <g
             id="g388"
             transform="scale(0.28571429,1.6666667)">
            <path
               style="fill:none;stroke:#333333;stroke-width:2;stroke-miterlimit:10"
               inkscape:connector-curvature="0"
               id="path390"
               stroke-miterlimit="10"
               d="m 0,0 350,0 q 0,0 0,0 l 0,60 q 0,0 0,0 L 0,60 q 0,0 0,0 L 0,0 q 0,0 0,0 z" />
          </g>
        </g>
        <g
           id="g392">
          <g
             id="g394"
             transform="scale(0.28571429,1.6666667)">
            <path
               style="opacity:0;fill:#000000;fill-opacity:0;stroke:none"
               inkscape:connector-curvature="0"
               id="path396"
               d="m 7,1.2 0,57 332.5,0 0,-56.4 -329,0 z" />
            <path
               style="opacity:0;fill:none;stroke:#3c7626;stroke-width:2;stroke-miterlimit:10"
               inkscape:connector-curvature="0"
               id="path398"
               stroke-miterlimit="10"
               d="m 7,1.2 m 0,0 0,4 m 0,0 m 0,2 0,4 m 0,0 m 0,2 0,4 m 0,0 m 0,2 0,4 m 0,0 m 0,2 0,4 m 0,0 m 0,2 0,4 m 0,0 m 0,2 0,4 m 0,0 m 0,2 0,4 m 0,0 m 0,2 0,4 m 0,0 m 0,2 0,3 1,0 m 0,0 m 2,0 4,0 m 0,0 m 2,0 4,0 m 0,0 m 2,0 4,0 m 0,0 m 2,0 4,0 m 0,0 m 2,0 4,0 m 0,0 m 2,0 4,0 m 0,0 m 2,0 4,0 m 0,0 m 2,0 4,0 m 0,0 m 2,0 4,0 m 0,0 m 2,0 4,0 m 0,0 m 2,0 4,0 m 0,0 m 2,0 4,0 m 0,0 m 2,0 4,0 m 0,0 m 2,0 4,0 m 0,0 m 2,0 4,0 m 0,0 m 2,0 4,0 m 0,0 m 2,0 4,0 m 0,0 m 2,0 4,0 m 0,0 m 2,0 4,0 m 0,0 m 2,0 4,0 m 0,0 m 2,0 4,0 m 0,0 m 2,0 4,0 m 0,0 m 2,0 4,0 m 0,0 m 2,0 4,0 m 0,0 m 2,0 4,0 m 0,0 m 2,0 4,0 m 0,0 m 2,0 4,0 m 0,0 m 2,0 4,0 m 0,0 m 2,0 4,0 m 0,0 m 2,0 4,0 m 0,0 m 2,0 4,0 m 0,0 m 2,0 4,0 m 0,0 m 2,0 4,0 m 0,0 m 2,0 4,0 m 0,0 m 2,0 4,0 m 0,0 m 2,0 4,0 m 0,0 m 2,0 4,0 m 0,0 m 2,0 4,0 m 0,0 m 2,0 4,0 m 0,0 m 2,0 4,0 m 0,0 m 2,0 4,0 m 0,0 m 2,0 4,0 m 0,0 m 2,0 4,0 m 0,0 m 2,0 4,0 m 0,0 m 2,0 4,0 m 0,0 m 2,0 4,0 m 0,0 m 2,0 4,0 m 0,0 m 2,0 4,0 m 0,0 m 2,0 4,0 m 0,0 m 2,0 4,0 m 0,0 m 2,0 4,0 m 0,0 m 2,0 4,0 m 0,0 m 2,0 4,0 m 0,0 m 2,0 4,0 m 0,0 m 2,0 4,0 m 0,0 m 1.5,-0.5 0,-4 m 0,0 m 0,-2 0,-4 m 0,0 m 0,-2 0,-4 m 0,0 m 0,-2 0,-4 m 0,0 m 0,-2 0,-4 m 0,0 m 0,-2 0,-4 m 0,0 m 0,-2 0,-4 m 0,0 m 0,-2 0,-4 m 0,0 m 0,-2 0,-4 m 0,0 m 0,-2 0,-1.9 -2.1,0 m 0,0 m -2,0 -4,0 m 0,0 m -2,0 -4,0 m 0,0 m -2,0 -4,0 m 0,0 m -2,0 -4,0 m 0,0 m -2,0 -4,0 m 0,0 m -2,0 -4,0 m 0,0 m -2,0 -4,0 m 0,0 m -2,0 -4,0 m 0,0 m -2,0 -4,0 m 0,0 m -2,0 -4,0 m 0,0 m -2,0 -4,0 m 0,0 m -2,0 -4,0 m 0,0 m -2,0 -4,0 m 0,0 m -2,0 -4,0 m 0,0 m -2,0 -4,0 m 0,0 m -2,0 -4,0 m 0,0 m -2,0 -4,0 m 0,0 m -2,0 -4,0 m 0,0 m -2,0 -4,0 m 0,0 m -2,0 -4,0 m 0,0 m -2,0 -4,0 m 0,0 m -2,0 -4,0 m 0,0 m -2,0 -4,0 m 0,0 m -2,0 -4,0 m 0,0 m -2,0 -4,0 m 0,0 m -2,0 -4,0 m 0,0 m -2,0 -4,0 m 0,0 m -2,0 -4,0 m 0,0 m -2,0 -4,0 m 0,0 m -2,0 -4,0 m 0,0 m -2,0 -4,0 m 0,0 m -2,0 -4,0 m 0,0 m -2,0 -4,0 m 0,0 m -2,0 -4,0 m 0,0 m -2,0 -4,0 m 0,0 m -2,0 -4,0 m 0,0 m -2,0 -4,0 m 0,0 m -2,0 -4,0 m 0,0 m -2,0 -4,0 m 0,0 m -2,0 -4,0 m 0,0 m -2,0 -4,0 m 0,0 m -2,0 -4,0 m 0,0 m -2,0 -4,0 m 0,0 m -2,0 -4,0 m 0,0 m -2,0 -4,0 m 0,0 m -2,0 -4,0 m 0,0 m -2,0 -4,0 m 0,0 m -2,0 -4,0 m 0,0 m -2,0 -4,0 m 0,0 m -2,0 -4,0 m 0,0 m -2,0 -4,0 m 0,0 m -2,0 -4,0 m 0,0 m -2,0 -4,0 m 0,0 m -2,0 -4,0 m 0,0 m -2,0 -0.9,0 z" />
          </g>
        </g>
      </g>
    </g>
  </g>
  <g
     id="g400"
     transform="translate(30,41)">
    <text
       style="font-size:18px;font-style:normal;font-weight:normal;text-decoration:none;fill:#000000;stroke:none;font-family:Arial"
       id="text402"
       y="15"
       x="58.5"
       text-decoration="none"
       font-weight="normal"
       font-style="normal"
       font-size="18px">Common Module Definition</text>
  </g>
</svg>
