<?xml version="1.0" encoding="UTF-8" standalone="no"?>
<svg
   xmlns:dc="http://purl.org/dc/elements/1.1/"
   xmlns:cc="http://creativecommons.org/ns#"
   xmlns:rdf="http://www.w3.org/1999/02/22-rdf-syntax-ns#"
   xmlns:svg="http://www.w3.org/2000/svg"
   xmlns="http://www.w3.org/2000/svg"
   xmlns:sodipodi="http://sodipodi.sourceforge.net/DTD/sodipodi-0.dtd"
   xmlns:inkscape="http://www.inkscape.org/namespaces/inkscape"
   version="1.1"
   width="945.9483"
   height="556.86957"
   id="svg2"
   inkscape:version="0.48.4 r9939"
   sodipodi:docname="diagram_usecase.svg">
  <metadata
     id="metadata448">
    <rdf:RDF>
      <cc:Work
         rdf:about="">
        <dc:format>image/svg+xml</dc:format>
        <dc:type
           rdf:resource="http://purl.org/dc/dcmitype/StillImage" />
      </cc:Work>
    </rdf:RDF>
  </metadata>
  <sodipodi:namedview
     pagecolor="#ffffff"
     bordercolor="#666666"
     borderopacity="1"
     objecttolerance="10"
     gridtolerance="10"
     guidetolerance="10"
     inkscape:pageopacity="0"
     inkscape:pageshadow="2"
     inkscape:window-width="1366"
     inkscape:window-height="705"
     id="namedview446"
     showgrid="false"
     inkscape:zoom="0.82280753"
     inkscape:cx="172.041"
     inkscape:cy="304.64104"
     inkscape:window-x="0"
     inkscape:window-y="27"
     inkscape:window-maximized="1"
     inkscape:current-layer="svg2"
     fit-margin-top="20"
     fit-margin-left="20"
     fit-margin-bottom="20"
     fit-margin-right="20" />
  <defs
     id="defs4" />
  <g
     id="g12"
     transform="translate(21,120.86957)">
    <g
       id="g14">
      <g
         id="g16"
         transform="scale(2.1,2)">
        <g
           id="g18">
          <path
             style="fill:#ffffff;stroke:none"
             inkscape:connector-curvature="0"
             id="path20"
             d="m 20,5 a 5,5 0 1 0 -2e-6,0.005 z" />
          <g
             id="g22"
             transform="scale(0.47619048,0.5)">
            <path
               style="fill:none;stroke:#000000;stroke-width:2;stroke-miterlimit:10"
               inkscape:connector-curvature="0"
               id="path24"
               stroke-miterlimit="10"
               d="M 31.5,0 C 37.298989,0 42,4.477153 42,10 42,15.522847 37.298989,20 31.5,20 25.701011,20 21,15.522847 21,10 21,4.477153 25.701011,0 31.5,0 z" />
          </g>
        </g>
        <g
           id="g26">
          <g
             id="g28"
             transform="scale(0.47619048,0.5)">
            <path
               style="fill:none;stroke:#000000;stroke-width:2;stroke-miterlimit:10"
               inkscape:connector-curvature="0"
               id="path30"
               stroke-miterlimit="10"
               d="m 31.5,20 0,40" />
          </g>
        </g>
        <g
           id="g32">
          <g
             id="g34"
             transform="scale(0.47619048,0.5)">
            <path
               style="fill:none;stroke:#000000;stroke-width:2;stroke-miterlimit:10"
               inkscape:connector-curvature="0"
               id="path36"
               stroke-miterlimit="10"
               d="M 31.5,60 21,100" />
          </g>
        </g>
        <g
           id="g38">
          <g
             id="g40"
             transform="scale(0.47619048,0.5)">
            <path
               style="fill:none;stroke:#000000;stroke-width:2;stroke-miterlimit:10"
               inkscape:connector-curvature="0"
               id="path42"
               stroke-miterlimit="10"
               d="M 31.5,60 42,100" />
          </g>
        </g>
        <g
           id="g44">
          <g
             id="g46"
             transform="scale(0.47619048,0.5)">
            <path
               style="fill:none;stroke:#000000;stroke-width:2;stroke-miterlimit:10"
               inkscape:connector-curvature="0"
               id="path48"
               stroke-miterlimit="10"
               d="M 31.5,60 42,100" />
          </g>
        </g>
        <g
           id="g50">
          <g
             id="g52"
             transform="scale(0.47619048,0.5)">
            <path
               style="fill:none;stroke:#000000;stroke-width:2;stroke-miterlimit:10"
               inkscape:connector-curvature="0"
               id="path54"
               stroke-miterlimit="10"
               d="m 0,30 63,0" />
          </g>
        </g>
      </g>
    </g>
  </g>
  <g
     id="g56"
     transform="translate(33.5,224.86957)">
    <text
       style="font-size:18px;font-style:normal;font-weight:normal;text-decoration:none;fill:#000000;stroke:none;font-family:Arial"
       id="text58"
       y="15"
       x="0"
       text-decoration="none"
       font-weight="normal"
       font-style="normal"
       font-size="18px">导师</text>
  </g>
  <g
     id="g60"
     transform="translate(84,23.13044)">
    <g
       id="g62">
      <g
         id="g64"
         transform="scale(1.7,0.8573913)">
        <g
           id="g66">
          <path
             style="fill:#ffffff;stroke:none"
             inkscape:connector-curvature="0"
             id="path68"
             d="m 100,50 a 50,50 0 1 0 -2.5e-5,0.05 z" />
          <g
             id="g70"
             transform="scale(0.58823529,1.1663286)">
            <path
               style="fill:none;stroke:#000000;stroke-width:2;stroke-miterlimit:10"
               inkscape:connector-curvature="0"
               id="path72"
               stroke-miterlimit="10"
               d="m 85,0 c 46.9442,0 85,19.19336 85,42.869565 C 170,66.54577 131.9442,85.73913 85,85.73913 38.055801,85.73913 0,66.54577 0,42.869565 0,19.19336 38.055801,0 85,0 z" />
          </g>
        </g>
      </g>
    </g>
  </g>
  <g
     id="g74"
     transform="translate(88.95652,58)">
    <text
       style="font-size:18px;font-style:normal;font-weight:normal;text-decoration:none;fill:#000000;stroke:none;font-family:Arial"
       id="text76"
       y="15"
       x="23.543478"
       text-decoration="none"
       font-weight="normal"
       font-style="normal"
       font-size="18px">课程发布/管理</text>
  </g>
  <g
     id="g78"
     transform="translate(608.77586,120.86957)">
    <g
       id="g80">
      <g
         id="g82"
         transform="scale(2.1,2)">
        <g
           id="g84">
          <path
             style="fill:#ffffff;stroke:none"
             inkscape:connector-curvature="0"
             id="path86"
             d="m 20,5 a 5,5 0 1 0 -2e-6,0.005 z" />
          <g
             id="g88"
             transform="scale(0.47619048,0.5)">
            <path
               style="fill:none;stroke:#000000;stroke-width:2;stroke-miterlimit:10"
               inkscape:connector-curvature="0"
               id="path90"
               stroke-miterlimit="10"
               d="M 31.5,0 C 37.298989,0 42,4.477153 42,10 42,15.522847 37.298989,20 31.5,20 25.701011,20 21,15.522847 21,10 21,4.477153 25.701011,0 31.5,0 z" />
          </g>
        </g>
        <g
           id="g92">
          <g
             id="g94"
             transform="scale(0.47619048,0.5)">
            <path
               style="fill:none;stroke:#000000;stroke-width:2;stroke-miterlimit:10"
               inkscape:connector-curvature="0"
               id="path96"
               stroke-miterlimit="10"
               d="m 31.5,20 0,40" />
          </g>
        </g>
        <g
           id="g98">
          <g
             id="g100"
             transform="scale(0.47619048,0.5)">
            <path
               style="fill:none;stroke:#000000;stroke-width:2;stroke-miterlimit:10"
               inkscape:connector-curvature="0"
               id="path102"
               stroke-miterlimit="10"
               d="M 31.5,60 21,100" />
          </g>
        </g>
        <g
           id="g104">
          <g
             id="g106"
             transform="scale(0.47619048,0.5)">
            <path
               style="fill:none;stroke:#000000;stroke-width:2;stroke-miterlimit:10"
               inkscape:connector-curvature="0"
               id="path108"
               stroke-miterlimit="10"
               d="M 31.5,60 42,100" />
          </g>
        </g>
        <g
           id="g110">
          <g
             id="g112"
             transform="scale(0.47619048,0.5)">
            <path
               style="fill:none;stroke:#000000;stroke-width:2;stroke-miterlimit:10"
               inkscape:connector-curvature="0"
               id="path114"
               stroke-miterlimit="10"
               d="M 31.5,60 42,100" />
          </g>
        </g>
        <g
           id="g116">
          <g
             id="g118"
             transform="scale(0.47619048,0.5)">
            <path
               style="fill:none;stroke:#000000;stroke-width:2;stroke-miterlimit:10"
               inkscape:connector-curvature="0"
               id="path120"
               stroke-miterlimit="10"
               d="m 0,30 63,0" />
          </g>
        </g>
      </g>
    </g>
  </g>
  <g
     id="g122"
     transform="translate(621.27586,224.86957)">
    <text
       style="font-size:18px;font-style:normal;font-weight:normal;text-decoration:none;fill:#000000;stroke:none;font-family:Arial"
       id="text124"
       y="15"
       x="0"
       text-decoration="none"
       font-weight="normal"
       font-style="normal"
       font-size="18px">学员</text>
  </g>
  <g
     id="g126"
     transform="translate(394.55172,190.13044)">
    <g
       id="g128">
      <g
         id="g130"
         transform="scale(1.7,0.8573913)">
        <g
           id="g132">
          <path
             style="fill:#ffffff;stroke:none"
             inkscape:connector-curvature="0"
             id="path134"
             d="m 100,50 a 50,50 0 1 0 -2.5e-5,0.05 z" />
          <g
             id="g136"
             transform="scale(0.58823529,1.1663286)">
            <path
               style="fill:none;stroke:#000000;stroke-width:2;stroke-miterlimit:10"
               inkscape:connector-curvature="0"
               id="path138"
               stroke-miterlimit="10"
               d="m 85,0 c 46.9442,0 85,19.19336 85,42.869565 C 170,66.54577 131.9442,85.73913 85,85.73913 38.055801,85.73913 0,66.54577 0,42.869565 0,19.19336 38.055801,0 85,0 z" />
          </g>
        </g>
      </g>
    </g>
  </g>
  <g
     id="g140"
     transform="translate(399.50825,225)">
    <text
       style="font-size:18px;font-style:normal;font-weight:normal;text-decoration:none;fill:#000000;stroke:none;font-family:Arial"
       id="text142"
       y="15"
       x="23.543478"
       text-decoration="none"
       font-weight="normal"
       font-style="normal"
       font-size="18px">任务发布/管理</text>
  </g>
  <g
     id="g144"
     transform="translate(416.5,445.86957)">
    <g
       id="g146">
      <g
         id="g148"
         transform="scale(1.7844828,0.9)">
        <g
           id="g150">
          <path
             style="fill:#ffffff;stroke:none"
             inkscape:connector-curvature="0"
             id="path152"
             d="m 100,50 a 50,50 0 1 0 -2.5e-5,0.05 z" />
          <g
             id="g154"
             transform="scale(0.56038647,1.1111111)">
            <path
               style="fill:none;stroke:#000000;stroke-width:2;stroke-miterlimit:10"
               inkscape:connector-curvature="0"
               id="path156"
               stroke-miterlimit="10"
               d="m 89.224138,0 c 49.277122,0 89.224142,20.147189 89.224142,45 0,24.852812 -39.94702,45 -89.224142,45 C 39.947012,90 0,69.852812 0,45 0,20.147189 39.947012,0 89.224138,0 z" />
          </g>
        </g>
      </g>
    </g>
  </g>
  <g
     id="g158"
     transform="translate(421.60345,482.86957)">
    <text
       style="font-size:18px;font-style:normal;font-weight:normal;text-decoration:none;fill:#000000;stroke:none;font-family:Arial"
       id="text160"
       y="15"
       x="48.120689"
       text-decoration="none"
       font-weight="normal"
       font-style="normal"
       font-size="18px">任务评分</text>
  </g>
  <g
     id="g162"
     transform="translate(84,310.86957)">
    <g
       id="g164">
      <g
         id="g166"
         transform="scale(1.7844828,0.9)">
        <g
           id="g168">
          <path
             style="fill:#ffffff;stroke:none"
             inkscape:connector-curvature="0"
             id="path170"
             d="m 100,50 a 50,50 0 1 0 -2.5e-5,0.05 z" />
          <g
             id="g172"
             transform="scale(0.56038647,1.1111111)">
            <path
               style="fill:none;stroke:#000000;stroke-width:2;stroke-miterlimit:10"
               inkscape:connector-curvature="0"
               id="path174"
               stroke-miterlimit="10"
               d="m 89.224138,0 c 49.277122,0 89.224142,20.147189 89.224142,45 0,24.852812 -39.94702,45 -89.224142,45 C 39.947012,90 0,69.852812 0,45 0,20.147189 39.947012,0 89.224138,0 z" />
          </g>
        </g>
      </g>
    </g>
  </g>
  <g
     id="g176"
     transform="translate(89.10345,347.86957)">
    <text
       style="font-size:18px;font-style:normal;font-weight:normal;text-decoration:none;fill:#000000;stroke:none;font-family:Arial"
       id="text178"
       y="15"
       x="48.120689"
       text-decoration="none"
       font-weight="normal"
       font-style="normal"
       font-size="18px">课程评分</text>
  </g>
  <g
     id="g180"
     transform="translate(366.5,21)">
    <g
       id="g182">
      <g
         id="g184"
         transform="scale(1.7844828,0.9)">
        <g
           id="g186">
          <path
             style="fill:#ffffff;stroke:none"
             inkscape:connector-curvature="0"
             id="path188"
             d="m 100,50 a 50,50 0 1 0 -2.5e-5,0.05 z" />
          <g
             id="g190"
             transform="scale(0.56038647,1.1111111)">
            <path
               style="fill:none;stroke:#000000;stroke-width:2;stroke-miterlimit:10"
               inkscape:connector-curvature="0"
               id="path192"
               stroke-miterlimit="10"
               d="m 89.224138,0 c 49.277122,0 89.224142,20.147189 89.224142,45 0,24.852812 -39.94702,45 -89.224142,45 C 39.947012,90 0,69.852812 0,45 0,20.147189 39.947012,0 89.224138,0 z" />
          </g>
        </g>
      </g>
    </g>
  </g>
  <g
     id="g194"
     transform="translate(371.60345,58)">
    <text
       style="font-size:18px;font-style:normal;font-weight:normal;text-decoration:none;fill:#000000;stroke:none;font-family:Arial"
       id="text196"
       y="15"
       x="48.120689"
       text-decoration="none"
       font-weight="normal"
       font-style="normal"
       font-size="18px">查看课程</text>
  </g>
  <g
     id="g198"
     transform="translate(746.5,21)">
    <g
       id="g200">
      <g
         id="g202"
         transform="scale(1.7844828,0.9)">
        <g
           id="g204">
          <path
             style="fill:#ffffff;stroke:none"
             inkscape:connector-curvature="0"
             id="path206"
             d="m 100,50 a 50,50 0 1 0 -2.5e-5,0.05 z" />
          <g
             id="g208"
             transform="scale(0.56038647,1.1111111)">
            <path
               style="fill:none;stroke:#000000;stroke-width:2;stroke-miterlimit:10"
               inkscape:connector-curvature="0"
               id="path210"
               stroke-miterlimit="10"
               d="m 89.224138,0 c 49.277122,0 89.224142,20.147189 89.224142,45 0,24.852812 -39.94702,45 -89.224142,45 C 39.947012,90 0,69.852812 0,45 0,20.147189 39.947012,0 89.224138,0 z" />
          </g>
        </g>
      </g>
    </g>
  </g>
  <g
     id="g212"
     transform="translate(751.60345,58)">
    <text
       style="font-size:18px;font-style:normal;font-weight:normal;text-decoration:none;fill:#000000;stroke:none;font-family:Arial"
       id="text214"
       y="15"
       x="30.120689"
       text-decoration="none"
       font-weight="normal"
       font-style="normal"
       font-size="18px">提交选课申请</text>
  </g>
  <g
     id="g216"
     transform="translate(226.5,108.86957)">
    <g
       id="g218">
      <g
         id="g220"
         transform="scale(1.7844828,0.9)">
        <g
           id="g222">
          <path
             style="fill:#ffffff;stroke:none"
             inkscape:connector-curvature="0"
             id="path224"
             d="m 100,50 a 50,50 0 1 0 -2.5e-5,0.05 z" />
          <g
             id="g226"
             transform="scale(0.56038647,1.1111111)">
            <path
               style="fill:none;stroke:#000000;stroke-width:2;stroke-miterlimit:10"
               inkscape:connector-curvature="0"
               id="path228"
               stroke-miterlimit="10"
               d="m 89.224138,0 c 49.277122,0 89.224142,20.147189 89.224142,45 0,24.852812 -39.94702,45 -89.224142,45 C 39.947012,90 0,69.852812 0,45 0,20.147189 39.947012,0 89.224138,0 z" />
          </g>
        </g>
      </g>
    </g>
  </g>
  <g
     id="g230"
     transform="translate(231.60345,145.86957)">
    <text
       style="font-size:18px;font-style:normal;font-weight:normal;text-decoration:none;fill:#000000;stroke:none;font-family:Arial"
       id="text232"
       y="15"
       x="30.120689"
       text-decoration="none"
       font-weight="normal"
       font-style="normal"
       font-size="18px">通过选课申请</text>
  </g>
  <g
     id="g234"
     transform="translate(238.05172,370.86957)">
    <g
       id="g236">
      <g
         id="g238"
         transform="scale(1.7844828,0.9)">
        <g
           id="g240">
          <path
             style="fill:#ffffff;stroke:none"
             inkscape:connector-curvature="0"
             id="path242"
             d="m 100,50 a 50,50 0 1 0 -2.5e-5,0.05 z" />
          <g
             id="g244"
             transform="scale(0.56038647,1.1111111)">
            <path
               style="fill:none;stroke:#000000;stroke-width:2;stroke-miterlimit:10"
               inkscape:connector-curvature="0"
               id="path246"
               stroke-miterlimit="10"
               d="m 89.224138,0 c 49.277122,0 89.224142,20.147189 89.224142,45 0,24.852812 -39.94702,45 -89.224142,45 C 39.947012,90 0,69.852812 0,45 0,20.147189 39.947012,0 89.224138,0 z" />
          </g>
        </g>
      </g>
    </g>
  </g>
  <g
     id="g248"
     transform="translate(243.15517,407.86957)">
    <text
       style="font-size:18px;font-style:normal;font-weight:normal;text-decoration:none;fill:#000000;stroke:none;font-family:Arial"
       id="text250"
       y="15"
       x="48.120689"
       text-decoration="none"
       font-weight="normal"
       font-style="normal"
       font-size="18px">课程归档</text>
  </g>
  <g
     id="g252"
     transform="translate(79.5,104.36957)">
    <g
       id="g254">
      <g
         id="g256"
         transform="translate(-293,-233.5)">
        <g
           id="g258">
          <path
             style="fill:none;stroke:#000000;stroke-width:2;stroke-miterlimit:10"
             inkscape:connector-curvature="0"
             id="path260"
             stroke-miterlimit="10"
             d="m 297.5,300 85,-62" />
        </g>
      </g>
    </g>
  </g>
  <g
     id="g262"
     transform="translate(79.5,166.36957)">
    <g
       id="g264">
      <g
         id="g266"
         transform="translate(-293,-295.5)">
        <g
           id="g268">
          <path
             style="fill:none;stroke:#000000;stroke-width:2;stroke-miterlimit:10"
             inkscape:connector-curvature="0"
             id="path270"
             stroke-miterlimit="10"
             d="m 297.5,300 310.55172,62.13043" />
        </g>
      </g>
    </g>
  </g>
  <g
     id="g272"
     transform="translate(79.5,166.36957)">
    <g
       id="g274">
      <g
         id="g276"
         transform="translate(-293,-295.5)">
        <g
           id="g278">
          <path
             style="fill:none;stroke:#000000;stroke-width:2;stroke-miterlimit:10"
             inkscape:connector-curvature="0"
             id="path280"
             stroke-miterlimit="10"
             d="M 297.5,300 719.22414,575" />
        </g>
      </g>
    </g>
  </g>
  <g
     id="g282"
     transform="translate(79.5,166.36957)">
    <g
       id="g284">
      <g
         id="g286"
         transform="translate(-293,-295.5)">
        <g
           id="g288">
          <path
             style="fill:none;stroke:#000000;stroke-width:2;stroke-miterlimit:10"
             inkscape:connector-curvature="0"
             id="path290"
             stroke-miterlimit="10"
             d="m 297.5,300 89.22414,140" />
        </g>
      </g>
    </g>
  </g>
  <g
     id="g292"
     transform="translate(79.5,166.36957)">
    <g
       id="g294">
      <g
         id="g296"
         transform="translate(-293,-295.5)">
        <g
           id="g298">
          <path
             style="fill:none;stroke:#000000;stroke-width:2;stroke-miterlimit:10"
             inkscape:connector-curvature="0"
             id="path300"
             stroke-miterlimit="10"
             d="M 297.5,300 540.77586,500" />
        </g>
      </g>
    </g>
  </g>
  <g
     id="g302"
     transform="translate(79.5,149.36957)">
    <g
       id="g304">
      <g
         id="g306"
         transform="translate(-293,-278.5)">
        <g
           id="g308">
          <path
             style="fill:none;stroke:#000000;stroke-width:2;stroke-miterlimit:10"
             inkscape:connector-curvature="0"
             id="path310"
             stroke-miterlimit="10"
             d="M 297.5,300 440,283" />
        </g>
      </g>
    </g>
  </g>
  <g
     id="g312"
     transform="translate(540.44828,61.5)">
    <g
       id="g314">
      <g
         id="g316"
         transform="translate(-753.94828,-190.63043)">
        <g
           id="g318">
          <path
             style="fill:none;stroke:#000000;stroke-width:2;stroke-miterlimit:10"
             inkscape:connector-curvature="0"
             id="path320"
             stroke-miterlimit="10"
             d="M 822.27586,300 758.44828,195.13043" />
        </g>
      </g>
    </g>
  </g>
  <g
     id="g322"
     transform="translate(667.27586,61.5)">
    <g
       id="g324">
      <g
         id="g326"
         transform="translate(-880.77586,-190.63043)">
        <g
           id="g328">
          <path
             style="fill:none;stroke:#000000;stroke-width:2;stroke-miterlimit:10"
             inkscape:connector-curvature="0"
             id="path330"
             stroke-miterlimit="10"
             d="M 885.27586,300 960,195.13043" />
        </g>
      </g>
    </g>
  </g>
  <g
     id="g332"
     transform="translate(79.5,61.5)">
    <g
       id="g334">
      <g
         id="g336"
         transform="translate(-293,-190.63043)">
        <g
           id="g338">
          <path
             style="fill:none;stroke:#000000;stroke-width:2;stroke-miterlimit:10"
             inkscape:connector-curvature="0"
             id="path340"
             stroke-miterlimit="10"
             d="M 297.5,300 580,195.13043" />
        </g>
      </g>
    </g>
  </g>
  <g
     id="g342"
     transform="translate(493.32759,280.86957)">
    <g
       id="g344">
      <g
         id="g346"
         transform="scale(1.7844828,0.9)">
        <g
           id="g348">
          <path
             style="fill:#ffffff;stroke:none"
             inkscape:connector-curvature="0"
             id="path350"
             d="m 100,50 a 50,50 0 1 0 -2.5e-5,0.05 z" />
          <g
             id="g352"
             transform="scale(0.56038647,1.1111111)">
            <path
               style="fill:none;stroke:#000000;stroke-width:2;stroke-miterlimit:10"
               inkscape:connector-curvature="0"
               id="path354"
               stroke-miterlimit="10"
               d="m 89.224138,0 c 49.277122,0 89.224142,20.147189 89.224142,45 0,24.852812 -39.94702,45 -89.224142,45 C 39.947012,90 0,69.852812 0,45 0,20.147189 39.947012,0 89.224138,0 z" />
          </g>
        </g>
      </g>
    </g>
  </g>
  <g
     id="g356"
     transform="translate(498.43103,317.86957)">
    <text
       style="font-size:18px;font-style:normal;font-weight:normal;text-decoration:none;fill:#000000;stroke:none;font-family:Arial"
       id="text358"
       y="15"
       x="48.120689"
       text-decoration="none"
       font-weight="normal"
       font-style="normal"
       font-size="18px">查看任务</text>
  </g>
  <g
     id="g360"
     transform="translate(578.05172,166.36957)">
    <g
       id="g362">
      <g
         id="g364"
         transform="translate(-791.55172,-295.5)">
        <g
           id="g366">
          <path
             style="fill:none;stroke:#000000;stroke-width:2;stroke-miterlimit:10"
             inkscape:connector-curvature="0"
             id="path368"
             stroke-miterlimit="10"
             d="M 822.27586,300 796.05172,410" />
        </g>
      </g>
    </g>
  </g>
  <g
     id="g370"
     transform="translate(79.5,166.36957)">
    <g
       id="g372">
      <g
         id="g374"
         transform="translate(-293,-295.5)">
        <g
           id="g376">
          <path
             style="fill:none;stroke:#000000;stroke-width:2;stroke-miterlimit:10"
             inkscape:connector-curvature="0"
             id="path378"
             stroke-miterlimit="10"
             d="M 297.5,300 706.82759,455" />
        </g>
      </g>
    </g>
  </g>
  <g
     id="g380"
     transform="translate(746.5,242.86957)">
    <g
       id="g382">
      <g
         id="g384"
         transform="scale(1.7844828,0.9)">
        <g
           id="g386">
          <path
             style="fill:#ffffff;stroke:none"
             inkscape:connector-curvature="0"
             id="path388"
             d="m 100,50 a 50,50 0 1 0 -2.5e-5,0.05 z" />
          <g
             id="g390"
             transform="scale(0.56038647,1.1111111)">
            <path
               style="fill:none;stroke:#000000;stroke-width:2;stroke-miterlimit:10"
               inkscape:connector-curvature="0"
               id="path392"
               stroke-miterlimit="10"
               d="m 89.224138,0 c 49.277122,0 89.224142,20.147189 89.224142,45 0,24.852812 -39.94702,45 -89.224142,45 C 39.947012,90 0,69.852812 0,45 0,20.147189 39.947012,0 89.224138,0 z" />
          </g>
        </g>
      </g>
    </g>
  </g>
  <g
     id="g394"
     transform="translate(751.60345,279.86957)">
    <text
       style="font-size:18px;font-style:normal;font-weight:normal;text-decoration:none;fill:#000000;stroke:none;font-family:Arial"
       id="text396"
       y="15"
       x="48.120689"
       text-decoration="none"
       font-weight="normal"
       font-style="normal"
       font-size="18px">完成任务</text>
  </g>
  <g
     id="g398"
     transform="translate(626.5,400.86957)">
    <g
       id="g400">
      <g
         id="g402"
         transform="scale(1.7844828,0.9)">
        <g
           id="g404">
          <path
             style="fill:#ffffff;stroke:none"
             inkscape:connector-curvature="0"
             id="path406"
             d="m 100,50 a 50,50 0 1 0 -2.5e-5,0.05 z" />
          <g
             id="g408"
             transform="scale(0.56038647,1.1111111)">
            <path
               style="fill:none;stroke:#000000;stroke-width:2;stroke-miterlimit:10"
               inkscape:connector-curvature="0"
               id="path410"
               stroke-miterlimit="10"
               d="m 89.224138,0 c 49.277122,0 89.224142,20.147189 89.224142,45 0,24.852812 -39.94702,45 -89.224142,45 C 39.947012,90 0,69.852812 0,45 0,20.147189 39.947012,0 89.224138,0 z" />
          </g>
        </g>
      </g>
    </g>
  </g>
  <g
     id="g412"
     transform="translate(631.60345,437.86957)">
    <text
       style="font-size:18px;font-style:normal;font-weight:normal;text-decoration:none;fill:#000000;stroke:none;font-family:Arial"
       id="text414"
       y="15"
       x="48.120689"
       text-decoration="none"
       font-weight="normal"
       font-style="normal"
       font-size="18px">查看评分</text>
  </g>
  <g
     id="g416"
     transform="translate(667.27586,166.36957)">
    <g
       id="g418">
      <g
         id="g420"
         transform="translate(-880.77586,-295.5)">
        <g
           id="g422">
          <path
             style="fill:none;stroke:#000000;stroke-width:2;stroke-miterlimit:10"
             inkscape:connector-curvature="0"
             id="path424"
             stroke-miterlimit="10"
             d="M 885.27586,300 960,417" />
        </g>
      </g>
    </g>
  </g>
  <g
     id="g426"
     transform="translate(667.27586,166.36957)">
    <g
       id="g428">
      <g
         id="g430"
         transform="translate(-880.77586,-295.5)">
        <g
           id="g432">
          <path
             style="fill:none;stroke:#000000;stroke-width:2;stroke-miterlimit:10"
             inkscape:connector-curvature="0"
             id="path434"
             stroke-miterlimit="10"
             d="m 885.27586,300 43.94828,230" />
        </g>
      </g>
    </g>
  </g>
  <g
     id="g436"
     transform="translate(79.5,166.36957)">
    <g
       id="g438">
      <g
         id="g440"
         transform="translate(-293,-295.5)">
        <g
           id="g442">
          <path
             style="fill:none;stroke:#000000;stroke-width:2;stroke-miterlimit:10"
             inkscape:connector-curvature="0"
             id="path444"
             stroke-miterlimit="10"
             d="M 297.5,300 840,575" />
        </g>
      </g>
    </g>
  </g>
</svg>
